<?xml version="1.0" encoding="UTF-8"?>
<svg viewBox="0 0 1105 904" xmlns="http://www.w3.org/2000/svg">
 <path d="m1050 385-1 1h-5q-3 0-6-6-2-5 4 0 7 4 8 5z" fill="#a1d6d0" fill-rule="evenodd" stroke="#a1d6d0"/>
 <path d="m585 590v-2l1 6q1 7 19 9 18 1 34 1h26v-1h1v-1h2v1q0 1-2 2l-3 1v1l1 1v1l-1 1v1h1q2 0 2 1t-1 1h-2q-1 0-1-1t-1-1q-1-1-7-1-5 0-9 2l-4 2-1 1h-1v2h11q12 0 12 1 1 2 3 1l3-1v-1l1 2 1 2v-1h1l1-1v1q0 2-1 3v1h-1q-1 0 0 3 0 3 2 3t2 2v7q0 2-2 1h-2q0 1-2 2h-2v1h-1v1h-1v1l-1 1v1h1l1 1h-3v-2h-1l-1-1h-1q0-1 1-1t1-2l-2-2q-1 0-1-1v-1h-1l-6 1-6 1-1 1h-1v4h-3q-3-1-5-1h-8l-7-1q0-1 1-1t1-1-1-1h-5q-5 1-5 4v2h-9l-8-1q-8-1-9-1t-1-1-2-4l-1-3v-1q1-1 1-7t1-6 1-8l-1-8v-2l1-1v-6q0-6 1-7z" fill="#758f0a" fill-rule="evenodd" stroke="#758f0a"/>
 <path d="m807 578v-2h2v2l1 1v2l2 5q0 4-1 5-2 1-3 1h-2v1q-1 1-3 1t-4-3l-2-2v-1q-1-1-1-2v-3q0-1-1-1t-1-1v-1h4l3-1q3 0 4 1t1 0 1-2z" fill="#92c2cc" fill-rule="evenodd" stroke="#92c2cc"/>
 <path d="m844 657-1 5q-1 6-6 7-4 1-4 2l-1 1v9h1v1h-9q-5 0-6-3t-6-3q-4 0-6-1-3-1-7-2l-4-1 3-1 2-1v-2h2q1 0 1-1l1-1v-2h1v-1l3-1q3 0 4 1 0 1 2 0t4-3q2-3 1-4v-1l2-1q2-2 1 0 0 3 1 3 2-1 5-1t6 2h6q3 0 4-1z" fill="#59781c" fill-rule="evenodd" stroke="#59781c"/>
 <path d="m986 520 1 6q1 5 0 5h-4q-4 1-7 1-2 2-2-1 1-2 2-2l2-2q1-2 2-2l2-2q0-1 2-1l1-1q1 0 1-1z" fill="#d8e4d9" fill-rule="evenodd" stroke="#d8e4d9"/>
 <path d="m1014 688v-2l4 2q4 3 4 2t2-1q3 1 4 1v1q1 1 0 2-2 1-2 2v1h1l-3 1q-2 0-2 1t-5 1l-4 1h-3v-3l1-1v-1h-1l-1-1h1v-3l1-1h3v-2z" fill="#55781e" fill-rule="evenodd" stroke="#55781e"/>
 <path d="m620 643 7 1h8q2 0 5 1h8q5 1 7 1h2l1-1h2l1 1h-1v2h-1l-1 1-1 1h1l-4 1-5 1h-11q-12 0-29-1h-17v-1h8l1-1 1-1 1-1v-1h12q3-1 4-2l1-1z" fill="#aeb24f" fill-rule="evenodd" stroke="#aeb24f"/>
 <path d="m705 640h3q4 1 4 2 0 2 1 2v2q-1 0 0 4v4h-5q-4 0-8-2h-3v-2q-1 0-1-2 0-1 2-2h1l1-2q0-2 2-2l3-2z" fill="#6d7722" fill-rule="evenodd" stroke="#6d7722"/>
 <path d="m906 681 2-1h2q2 1 4 3 1 1 4 1h4q2 1 3 6t0 5v1h-1q-1 0-2-2 0-1-3-2-3 0-4 1-1 2-4 1h-5v1h-1v-1h-1l-1-1h-1v-6l1-1q1-2 1-3t2-2z" fill="#537d17" fill-rule="evenodd" stroke="#537d17"/>
 <path d="m931 627v-1h3l1 1 1 1h1v1h1v1h1v1h1l1 5q1 4 1 5-2 1-2 5 0 3 1 6v2h-1v1h-3q-3 0-3 1v2l-1 2-1 2h-1q-1 0-1-1t-3-1q-2 1-2-2v-2h1q1 0 1-1-1-1-2-1-1-1-1-2 0-2-3-4-2-2-3-2l-2 1h-1q-1-1-2-3l-1-3v-3l1-2 1-1v-2h1v1h1v-1l1-1h2v-1h1v5h-1 3v-1h1v-1h1q2-1 3-4l1-2h2q0-1 1-1z" fill="#53751c" fill-rule="evenodd" stroke="#53751c"/>
 <path d="m569 590v-9l5 4q5 5 8 3 2 0 2-1v-1h1v4q-1 1-1 7v6l-1 1v2h-13v-1h-1v-3q-1-2 0-12z" fill="#487421" fill-rule="evenodd" stroke="#487421"/>
 <path d="m942 582v1q-1 1-4 1h-3v1h-1q-1 0-2 9-2 8-4 8l-2-1v-1q0-1-3-10l-2-9 2 1h19z" fill="#32691f" fill-rule="evenodd" stroke="#32691f"/>
 <path d="m668 583-1-2h1q1 0 1 1t15 1q14 0 14 1 1 2 2 2 2 1 2 2h2v1q0 1-2 1-2 1-2 0 0-2-2-2-1 0-4 3t-5 2l-2-1v-1q-1-1-3-1-3-1-3-3 0-1-1-1l-4 2h-4v1h-2v-2q0-2-2-4z" fill="#96c7d7" fill-rule="evenodd" stroke="#96c7d7"/>
 <path d="m1030 583 1-1h1v4q2 4 2 5v1h1l2-2q2-2 5 1 4 2 4-1-1-2 2-2t3 1 2 2 5 1h3q1 0 1 2 1 2 2 0 2-2 2-4t1-2 2 3 5 0q3-3 4-5v-2h2q1 0 2 10 0 11 1 18l1 8v3h9v1h-3q-4 1-6 12t-1 12l1 2v1q0 1-1 1h-2v2l-1 1v2l-1 1-1 1v1l-1-1-1-1v-1h-1v-1h-1v-1q0-1-1-1h-1v-2q0-1-2-2 0-1-2-6v-10h-5v1h-1v1h-1v1h-1v1h-1v1h-1v1h-2v8q0 9 1 10 0 1-2 2-3 0-3 4v4l-1 2v1h-1v-2l-1-1q-1-1-1-2h-2q0 1-2 0h-2v-1h-1q0-1-1-1-2 0-3-2t-2-2q-1-1-3-2h-1v-1h-1v-1q0-1 1-2 0-1 1-2h2v1-3h-3q-3 0-5 2l-2 2v1h-1v1h-2v-2l1-1v-1l1-2q1-2-1-2h-3v-1h1v-4h-1q0-1-1-3-2-3-4-24l-4-22v-2h3v-1l1-1v-2h2l1-1h1l1 3 1 3v1h1v-1h1v-1h1l1-1q1 0 2-1 0-2 1-4l1-1v-1h1l1-1z" fill="#748d0a" fill-rule="evenodd" stroke="#748d0a"/>
 <path d="m866 681q-1 1-4 1-2 0-8-2l-7-1q0-1 1-4 0-3 1-3t1-1 1-1h7q2 0 2-1l2-1h3q1 1 1 6v7z" fill="#7c732f" fill-rule="evenodd" stroke="#7c732f"/>
 <path d="m799 623v-1h4l4 2q5 2 4 3 0 1 1 2 2 0 2 1v1l-2-1q-3 0-4 4l-4 8q-1 3-3 4-1 1-3 4v8h1l1 1q2 0 2 1v1h1v1h1v1h1v1h-1v2l-1 1q0 1-1 1h-2v2l-2 1-3 1q-1 0-1 2 0 1-5 1-4 1-5-1 0-1-5-1-5 1-5-1-1-1-6 0h-7v-1h-1v-1h-1v-2h-1v-1l1-1v-1h1l1-1 2-1q3 0 3-1 1 0 2-1 2-1 2-3v-3l1-1v-1h-2q-2 1-2-3t-2-3l-2 1-1-1v-1h-1l1-1h1v-1l-1-2v-2h2v1l1-1q0-2 2-3 3-1 4-5t6-6q5-1 7-1 2 1 4 1 1 2 4 1l3-1h1v-1h1v-1h1v-1h1z" fill="#52781a" fill-rule="evenodd" stroke="#52781a"/>
 <path d="m508 591h2v1h-2v1h-1v1h-1v4h-6q-4 0-4 1-1 1-4 1h-4l-1-1-1-1 1-1v-1h2v-1h1v-7q1-3 2-3t1-1 1-1h1l4-1q4-2 6 0 1 2 2 6 0 3 1 3z" fill="#3d763b" fill-rule="evenodd" stroke="#3d763b"/>
 <path d="m1072 451v3l1 35q1 35 1 41 0 7-1 7v-1h-1l-1 4q-1 3-6 2-5 0-4 1 1 2-4 6l-4 3-1 1-1 1h2v2h-2l-1 1h-1v-10h-2v1l-1 1v5h-2l-2-1-1-1h-3v-1q0-1 2-2 0-1-1-1-1-1-1-2v-2h-3v1h-1v1l-4 4-4 5v1h-3v-1h-1v-9h-1v1h-1v1q0 1-1 2 0 2-4 1l-4-1h-3v1h1v1h1q2 1 2 2v3h-1v1h-2l-1 1-2 1h-2v-1l-1-3q-1-3-3-18-2-14-3-54v-41h1v-1h1v-2l1-2v2h1l1 3q2 2 4 3 3 2 4 2h1v-2q0-3 1-3 1-1 2-1h1v1h-1v1h-2 6v1l-1 1-1 1v1l-2 3-2 3h-1l-1 1-1 1h-1v2l3-1 3-1 1-1 1-1v4l-1 2q-1 1-1 2l-1 1-1 1v3h1v-1h1v-1l1-1 1-1v-1h2l2-5q2-5 3-5v-1l3-1 2-2 5-2q5-3 7-6 3-2 3 0 0 3 2 2 3-2 5 6 2 7 3 8 2 1 3-5 2-7 4-9 3-2 6-1 2 1 4 5t2 5zm-63 17q1 0 1 1t-1 1-1-1 1-1z" fill="#f4f8f9" fill-rule="evenodd" stroke="#f4f8f9"/>
 <path d="m978 583-1-3q-1-2-1-4v-12l2 3q1 3 2 5 2 1 0 2v5q1 4 2 4t0 1q-1 2-2 0-2 0-2-1z" fill="#78b0a1" fill-rule="evenodd" stroke="#78b0a1"/>
 <path d="m1090 624h5q2 0 2 1v1h3q4 0 4 1h1v34h-1q-1 1-4 2l-3 1v-2l1-1v-1l2-2q2-3 2-4-1 0-2-2 0-2-2-1-1 1-5 4l-3 4h-1v-1h-1v-2q0-3 1-4v-2h-1q-1 0-1 1-1 0-3 1h-3l1-1 2-1-1-2q-1-1 1-12t6-12z" fill="#657d1e" fill-rule="evenodd" stroke="#657d1e"/>
 <path d="m1050 385v-1q0-1-1-2l-1-2-1-1q-1-2-5-5-5-4 1 0 6 2 8 5 2 2 1 3v2q1 2 0 2l-2-1z" fill="#94cdc2" fill-rule="evenodd" stroke="#94cdc2"/>
 <path d="m702 518v-20l1 2q1 1 1 2v1h1v1h1v2l1-2v-3l1 5q1 5 0 5t-1 7q1 6 1 20v13l1 1h-5v5l-1-9-1-9v-21z" fill="#a38462" fill-rule="evenodd" stroke="#a38462"/>
 <path d="m952 520 2 1 1 1h-2v1h1v1h2q1 1 1 3l-1 2q0 1-4 2l-3 1-1 1-1 1h-2v2h6l1-1h1v2h-1l-1 1h-2v1q-1 0-3 2l-3 3h-1v4h2q2 0 2 1t1 0 1 0v5q-2 6-3 8-1 3-2 4l-1 1v2h-2l-1-1h-9v-1h-1v-1h1v-1l1-1q0-1 1-2 2 0 2-1t1-1h1v-1l1-1v-1h-1l-1-1h-5v1l-1 1q-1 1-2 3l-1 2h-1v1h-1l-2 1h-1v-8h-1l-1 1h-1v1q-1-1-2-3 0-3-2-28-1-24-2-24t0-8v-12h1v-1h1v4l1 1 1 1v1q0 2 1 4l1 1v3l1 2 1 1v2l1-12q0-11 1-11 2 0 10 12 8 11 7 12 0 2 2 3 3 1 5-1t0 1 1 2 0 3 0 3 4-3q1-1 0 4-1 6-1 5 1-1 2-1z" fill="#f1f5f2" fill-rule="evenodd" stroke="#f1f5f2"/>
 <path d="m567 584v-4h1q1 0 1 1v9q-1 10 0 12v3l2 14q1 14 2 15v2h-2l-1-1v-1q0-1-1-2-1 0-2-19l-1-19v-4q0-3 1-6z" fill="#9a8d40" fill-rule="evenodd" stroke="#9a8d40"/>
 <path d="m736 572v1l1 3v2h-2l-1 1-2 1h2v1l1 1q1 0 2 1h1v1q0 1-1 2 0 1-1 1-2 0-2 1t-2 2h-1l-1 1h-2v-1h-1q-1-1-1-2v-4q-2-3-3-4-1 0-1-2 1-2-1-2-2 2-3 1 0-1-2-1l-2 1v-1l-1-2-1-1v-4l3 1q3 0 3-1t1-1 1 1q1 1 7 1h7q1 2 2 2zm-5 0v-1q1 0 1 1h-1z" fill="#b2d5e1" fill-rule="evenodd" stroke="#b2d5e1"/>
 <path d="m912 642v-1l1 3q1 2 2 3h1l-1 1q-1 2 0 7t1 6v1h2q2-1 4-4 1-2 2-2h1v2q0 3 2 2 3 0 3 1t1 1h1q1 0 2 1v1q0 1-1 1t-2 2-3 4q-3 2-4 6 0 3-1 4l-2 2v1h-3q-3 0-4-1-2-2-4-3h-2l-2 1q-2 1-2 2t-1 3l-1 1v1h-7v-1h-1v-1h-4v-1h-1v-1h-1v-3l-1-1-1-2v-1h1v-1h1q2 0 1-1-1 0-1-3 1-3 6-4 5 0 5-1l1-1v-2h1v-1h1v-1q0-1 1-2 0-1-1-1h-1v-1q1-1 1-4l1-2v-1h1v-1q0-1 3 0 3 0 4-4l1-4z" fill="#4d731c" fill-rule="evenodd" stroke="#4d731c"/>
 <path d="m951 444q3 2-2 2-6-1-6-2t3-1q2-1 5 1z" fill="#b3d8d1" fill-rule="evenodd" stroke="#b3d8d1"/>
 <path d="m704 554v-2h5l1 8q2 7 2 8v5l1 1 1 2v3l2 5 2 4q0 1 1 4l1 2v2h2l-1 1h-1v2l2 7q2 8 3 14l2 10v5h-2v-1h-1l-2-1-1-1h-1v-1l-1-3q-1-2-2-8-1-5-4-15-3-9-5-9h-2l-1-2v-2h1q2 0 2-3t-2-17l-2-15v-3z" fill="#967d53" fill-rule="evenodd" stroke="#967d53"/>
 <path d="m947 570v-2h2l1 1h1v2l-1 2v2h-2q-1 1 0 2 2 2 0 4-2 1-3 1h-1q0-1-2-3l-1-2h1v-4h1v-1h1v-1q1-1 2-1 0 1 1 0z" fill="#7fb4b4" fill-rule="evenodd" stroke="#7fb4b4"/>
 <path d="m897 653 1-1h5q-1 1-1 4v2q-1 0-1 1v1q-1 0-4 2t-3-1q1-3 2-3t0-2v-3h1z" fill="#568017" fill-rule="evenodd" stroke="#568017"/>
 <path d="m811 630h2l1 1 2 3q2 4 3 5v1h2l-1 1h-1v2h-1q-1-1-4-1h-2v8h1v1h1v1l2-1q1 0 1 2t1 2h1v1q1 1-1 4-2 2-4 3t-2 0q-1-1-4-1l-3 1h-1v-1h-1v-1h-1v-1q0-1-2-1l-1-1h-1v-8q2-3 3-4 2-1 3-4l4-8q1-4 3-4z" fill="#396724" fill-rule="evenodd" stroke="#396724"/>
 <path d="m931 556h4l1 1h1v1l-1 1v1h-1q-1 0-1 1t-2 1q-1 1-1 2l-1 1v1h-1v1h1v1h9l1 1h2v2l-3 1q-3 0-1 2t2 3h1l1 2q2 2 2 3l-1 1h-1v-1h-19l-2-1v-1q-1-1-2-11l-1-10v-1h1l1-1h1v8h1l2-1h1v-1h1l1-2q1-2 2-3l1-1v-1h1z" fill="#195c36" fill-rule="evenodd" stroke="#195c36"/>
 <path d="m760 640h2v2l1 2v1h-1l-1 1h1q1 0 1 1v1h-1q-1 0-5 2l-3 3-1 2q0 2-1 2h-1v1l1 2 1 2 1 1q0 1 4 1h3l-1 1h-1v4h-2v-2h-10v-3q-1-2-2-2l-2-1v-1l1-2q0-1 1-4 0-2-3-2l-4 1v-3q0-3-3-4h-2v-1h1v-5q1-5 2-6 2 0 2-2 0-1 6-1 5 1 7 1 2 2 4 3 3 1 3 3 1 2 2 2z" fill="#627d18" fill-rule="evenodd" stroke="#627d18"/>
 <path d="m939 572 3-1v6h-2q0-1-2-3t1-2z" fill="#83b7b5" fill-rule="evenodd" stroke="#83b7b5"/>
 <path d="m660 647v-1h2v2h12q4 0 10 2 5 0 9 1h4v1h3q4 2 8 2h5l1 3q2 3 3 3h5v2h1v2l1 1v2h1v1h1v1h-2l-3-1h-3q-3 0-6-1l-4-1-2-1q-1-1-10-3-8-2-25-6l-17-4h-5l5-1 4-1h-1l1-1 1-1h1v-1z" fill="#bcb85f" fill-rule="evenodd" stroke="#bcb85f"/>
 <path d="m940 654h1v8h-1q0-1-1-1 0-1-3 1l-2 1-1 1h-1q-1 0 0-1v-1l1-2 1-2v-2q0-1 2-1 3-1 4-1z" fill="#4b7421" fill-rule="evenodd" stroke="#4b7421"/>
 <path d="m1077 448 1 8q2 9 3 10 2 2 2 3v1h-1q-1 0 0 22 0 23 2 32 1 10 3 10t2 2q0 1 1 1l2 1-2 2q-2 3-2 6v5q0 2 1 2h1l-1 1q-1 0-1 1t2 1q1 0 1 1h-2l3 19q2 18 3 20v1l1 9q0 9 1 13v4h-13v-3l-1-8q-1-7-1-18-1-10-2-10h-1v-1q1 0-1-17-2-16-2-18t-1-2-1-5l-1-5v-41l-1-41v-2l2-2q2-2 3-2z" fill="#9e7c52" fill-rule="evenodd" stroke="#9e7c52"/>
 <path d="m550 579h2v1q0 2 3 3 3 2 3 3 0 2 1 2 1 1 0 2 0 1-5 2-6 0-6 1h-1q0 1-1 1h-1v-1l1-1 1-1q1 0 1-3t-2-2q-1 0-1-1v-1h1v-1h-1v-1q0-2 1-2 2 0 4-1z" fill="#4a9ca6" fill-rule="evenodd" stroke="#4a9ca6"/>
 <path d="m940 662h-1v1h-1v5h1v-1h1v-1h1l2-2q1-1 2-1v-1h3v-1 4l-2 1q0 1-1 3l-1 2v1h1v1h1v-1l3 1q3 0 3 1v1h3l1 1q2 1 2 6v11l1 1v1h-1l-1 1h-9q-10 0-14-1-5-1-7 0l-2 1v-1q1 0 0-5t-3-6h-1v-1l2-2q1-1 1-4 1-4 4-6 2-2 4-5l1-2h1v-1l2-1q3-2 3-1 1 0 1 1z" fill="#41721a" fill-rule="evenodd" stroke="#41721a"/>
 <path d="m1041 691v4h-3q-2 1-6 1h-6v-1q0-1 2-2 1-1 0-2v-1l5-1q5-1 6-1t2 3z" fill="#3e711c" fill-rule="evenodd" stroke="#3e711c"/>
 <path d="m924 696h1l2-1q2-1 7 0 4 1 14 1h9l1-1h4q4 0 4 2t2 2q2 1 4 0 1-1 4-1h4v-1h1v1h9q8-2 9-2t1 2q1 2 3 2h10l4-1q5 0 5-1t2-1l3-1h5q4 0 6-1h3v1h2v-1q0-1 3-1 2 0 2 1 1 1 3 2 2 0 2-1t3-1q2 1 3 0h1l1-1q1 0 2 2t5 3q5 1 7 2l4 2q2 0 3 4 0 4 1 4v1l3-1q3-1 4-1 2-2 3 0h5q4 0 4-1l1-1h1v-6h1v110h-2v-1h-1v-1h-1l-1-1-1-1h-1q-1 0-7-4-7-4-21-14-14-9-14-10t-20-14q-19-12-38-22t-41-16q-22-8-49-12-26-4-50-6l-25-4h-4l-1-1-2-1 11 1q11 1 13 0 1 0 1-1t4-2q3 0 4-2 0-3 1-4h1l-1-1-1-1 21 2q21 0 21 1h1v-1h5v-1h1v-1h3q3 1 4-1 1-1 4-1 3 1 3 2 1 2 2 2zm-71 9v-1h1q0 1-1 1z" fill="#dec583" fill-rule="evenodd" stroke="#dec583"/>
 <path d="m998 441h1l-1 1v42q0 40 2 54 2 15 3 18l1 3v3q0 1 2 2 2 0 1 1-2 1-1 8t3 7q1 0 2 1 0 1-1 1-2 1-2 3t1 3l1 2v4l4 22q2 21 4 24 1 2 1 3h1v4h-1v1h-3v1h-1v1h-1v1h-1v-1h-1v-4q0-3-1-5t-1-5q2-2-4-4l-5-2q-1-1-1-14-2-14-3-22l-2-7v-2h-1q-1 0-2-5v-4l1-1q1 0 1-3 0-2-2-6l-2-3v-2q0-2-1-7-2-4 0-4 2 1 2-1-1-2-3-5-2-4-4-5l-3-1v-2l3-1q4-1 3-2v-2q1 0 0-5 0-5-1-5h-1v-1l1-1q0-1 2-37l2-37 1 1v2h2v1h1v-1l2-3q1-3 2-4z" fill="#a28057" fill-rule="evenodd" stroke="#a28057"/>
 <path d="m670 624h1l1 2q0 1 1 0 0-2 2-2t2 1 1 1q2 0 2 4 1 3 4 2 3 0 4-1v-1h1l1 4q0 4 6 5 7 1 8 1h1l-3 2q-2 0-2 2l-1 2h-1q-2 1-2 2 0 2 1 2v1h-4q-4-1-9-1-6-2-10-2h-9l-1-1h-1v-1l1-1v-1h1v-1h1v-1h2q2-1 2-2h2q2 1 2-1v-7q0-2-2-2t-2-3q-1-3 0-3z" fill="#58791b" fill-rule="evenodd" stroke="#58791b"/>
 <path d="m748 578-2-3 5 4q5 3 6 3t1 1q1 1 4-1l2-2v2q0 1 1 4v3h-3l-3-1h-1v-1h-1v-1q-1 0-3-2l-2-2h-1l-3-4z" fill="#5ba1a4" fill-rule="evenodd" stroke="#5ba1a4"/>
 <path d="m706 666h2l4 1q3 1 6 1h3l3 1h3v1l6 2q6 2 15 2h12l2-1 2-1h4q5-1 6 0 0 2 5 1 5 0 5 1 1 2 5 1 5 0 5-1 0-2 1-2l4 1q4 1 7 2 2 1 6 1 5 0 6 3t6 3h9v-1h1l2-1h4v-1h4q2 1 2 0h1l7 1q6 2 8 2 3 0 4-1v1h1l5 1q6 1 8 1t6 1h4v1h4v1h1v1h7v5h1l1 1h1v1h1v-1h2v1h-1v1h-5v1h-1q0-1-21-1l-21-2 1 1 1 1h-1q-1 1-1 4-1 2-3 3t-5 2-14 0l-11-1h-3q-3 0-15-3l-13-2v-1h-4l-3-1q-4-1-21-3t-37-10q-19-7-20-8v-5h-1l-2-2-2-2q-1-1 1-1z" fill="#d9c37e" fill-rule="evenodd" stroke="#d9c37e"/>
 <path d="m977 424h5l1 2q1 1 1 4v2h1v1h1v-1l1-1q1-1 1-3v-1l1 7q1 8 1 10v1l-2 37q-2 36-2 37h-2q-1 0-1-1 0-2-2-2t-5 6l-4 5h-1l-1 1h-2v-11h-1l-1 1-1 2q-1 1-1 2 0 2-4 1l-5-1-1-1-2-1v-1q0-1 3-7t3-17 1-11q1 1 3 2 2 2 0-5t-7-13q-4-6-4-7 0-2 5 1 4 2 4 0 0-1 2 0h3l1 1 2 1h2l1 1h1v-2h-1v-1h-2v-1l-1-1v-1h-1v-1q-1 0-5-4l-4-4v-2l-1-4v-4h7v1h1v1h2v-1h-1v-1h-1v-1q-1 0-1-3l-2-2v-5 1h1v1h1v1h1v1h1v1h2v-1l-1-1-1-1v-4 1h2v2l1 1q1 1 1 2v1l1 1 1 1v1l1-3 2-6 1-4h1z" fill="#eaf4f5" fill-rule="evenodd" stroke="#eaf4f5"/>
 <path d="m966 92h3v1h1v-1h3v1l-1 1v1h-1v1h-1v2q0 1-5 8-5 6-7 10-2 5-1 10 1 4 6 7 4 3 11 2t27-7 31-5 12 1 3 8 13 10 16 4q4 2 5 6 1 3 0 10-1 6-1 8 1 2 12 5 12 3 12 33t1 30v136h-1q-2 0-4 1-3 1-4-2 0-3-2-3t-4 1q-2 2-7 5-5 2-5 3t-5 5q-4 4-10 0-6-2-10-7-3-5-11-9-7-4-17-6-10 0-11-2t-6-2q-4 0-4-8 0-7-3-3l-3 4v1h-2v-1q0-1-1-3l-1-2h-1v-1h-1v3q0 3-1 6l-1 4v-1h-1q0-1-1-2v-2h-1v-1h-1v9-1h-2v-1q0-1-2-3v-1h-1v-1h-1v1q0 1-1 3 0 3-1 3l-2-1-5-3q-5-3-15-3-11 0-16 2l-6 4h-1v1h-1v1h-1v1h-1v2h1v-1h2v-1h1v-1h1l1-1h1v1l-1 1v1h-1v1h-1v5-1h1v-1h1v-1l2-1q1-2 2-2h1v-1h1v-1h2v1l-1 1-1 1v1q0 1-1 3l-1 2v6l1-1 1-2v-1l1-1q1-1 1-2v-1h1v-1h1v-1h1v-1h1v2h-1v1h-1v3q0 2 2 1 1-1 0 2 0 3 4 5 5 2 6 3 2 0 2 1t1 1l1 1h1v1h1v5h-1l-1 1q-1 1-6 3l-4 4h-2l-1 1-1 1h-1v1h-1v1h-1 5q3 0 4-1l2-1h2l1-1h1v2h-1v1h-2v1h-1l-1 3q-2 3-1 2 2 0 0 8t-2 12v5h-4l-1-1h-5l-4-1-4-1 1-1v-1h-2l2-4q3-3 3-4v-1h1v-1h1v-3 1h-2l-2 1-1 1h-1q-1 0-6 4l-6 3v1l-1-1-1-1v-2l-1-1q-1-1-1-3l-1-1v-1l-2-4q-1-2 1-2h1v-1l-1-1v-1h-1v1h-1q-2 0-4 1-1 1-6 0-6-1-6 0-1 1-8 0t-8-1q0-1-13-2h-15q-1 2-7 2h-6v-1h-1v-1l-1 1v1h-1l-6-4-6-4v-1l-1-3-1-3v-1l-1-1-1-1v-2l-1-1v-1h2v1h1v1h1v1h1v1q1 0 2-1l1 1 4 1q4 1 12-1 9-3 15-9 8-6 8-7t4-3q5-1 16 0 10 1 14-1t5-3l1-2v-1h1v-1h1v-1h1v-1h1v-4l-1-1v-1h-1l-1-1h-217q-218 0-221 2-3 1-4 4l-1 4h-2v-3h-1v-1h-1l-1-1q-1-1-8-4t-10-6l-3-3v-8h1l3-2q2-2 4-3 2 0 3-1 1-2 4-2h1q-3 0-1-1l2-1h17q18 0 18-1l20 4q19 3 26 3 8 0 26-10t18-11l14-3q13-2 24-9 12-7 14-9 3-2 12-2 8 0 18-4 10-2 22-2 12 2 20 3 9 1 23 1t15-2q2 0 3-1l1-1h1v-1h1v-1l1-1 1-1v-5l-1-1-1-1v-1h-1l-1-1q-2-1-4-1-3-2-21-4l-18-4h-4v-1h1v-1h1v-1h1v-1h2l6-4q5-2 5-3h1v-1l1-1 1-1v-4l-1-1-1-1v-1h-1v-1h-1l-2-1q-1-1-15-4l-14-3v-1h-1v-4l11-20q11-20 9-21-1 0 0-2t11-9 21-13q10-8 16-8 6-2 11 1t9 8 8 15 8 14 5 4h4q3-1 9-8 5-6 7-7 1-1 2 1t8 2 14-5q7-4 13-9 6-6 6-8 2-2 1-6t-1-5q-1-1-6-3-4-2-9-3t-17-1h-12v-1h-1v-1h-3v-1h-1v-1h1v-6h1l1-1q1 0 1-1t15-9q16-7 40-15 25-6 30-8t12-2h15q7 2 19-2t17-6h7z" fill="#8ad3fb" fill-rule="evenodd" stroke="#8ad3fb"/>
 <path d="m974 680 2-1 1 1q1 1 1 2 0 2 1 2h1v3q-1-1-4-2t-3-3q-1-2 1-2z" fill="#507f18" fill-rule="evenodd" stroke="#507f18"/>
 <path d="m881 570q1-2 3-2 2 1 1 2 0 2-3 2-2 1-1-2z" fill="#8ec5b3" fill-rule="evenodd" stroke="#8ec5b3"/>
 <path d="m724 638q0 1 1 0h1q2 0 2 2v1h-1v1h1v3h2l1 1q-1 0-2 4-1 3-4 4h-3l-1 1h-1l-1 2-1 3h-1q-1 0-3-3l-1-3v-4q-1-4 0-4v-1l2-1h3v-1h1v-1h1v-2l2-1q1-1 2-1z" fill="#4a6e21" fill-rule="evenodd" stroke="#4a6e21"/>
 <path d="m658 574v1h1v-1h1v-1h1v-1h5l-2 2q-2 2 1 4 3 0 2 1-1 0-1 1t1 1q0 1 1 1l1 2q1 1 1 3v2h1v1h-1l-1-1q0-1-1-1-2 0-4 4-2 3-3 3t-1 1v1h-1v1h-2q-1 0-1-3-1-3-2-2 0 1-5 2l-4 1h-1v-3h1v-1h1v-1l1-1q1-2 1-3t-2-1h-1v-3q0-1 1-2l1-2q1 0 1-1h1v-1h1v-3l1-1h1l2 1q1 0 2-2 0-1 1 0l1 2z" fill="#3496ab" fill-rule="evenodd" stroke="#3496ab"/>
 <path d="m643 588 2-2h1q2 0 2 1t-1 3l-1 1v1l-1 1v1q-1 0-1 1v1h-1v-1h-1v-1h-1v-1h-1v-2h1q0-1 2-3z" fill="#86bdc1" fill-rule="evenodd" stroke="#86bdc1"/>
 <path d="m1049 668 1 1v2h1v3l-1 2-1 1-1 1q-1 0-2 1l-1 1h-1l1 4q0 3-1 3t-1 3l-1 2v2h-1v-3q-1-3-2-3t-6 1l-5 1q-1 0-4-1-2 0-2 1t-4-2l-4-2h-6v-5h1v-1h3v1h1v1h1v-1l4-1q4-2 5-2 2-1 2-2t5 0q4 0 4-1l2-2q2 0 2-3v-3h1v-1h6q3 0 3 1l1 1z" fill="#5c7e16" fill-rule="evenodd" stroke="#5c7e16"/>
 <path d="m769 653h2v1l-1 1v3q0 2-2 3-1 1-2 1 0 1-3 1l-2 1h-3q-4 0-4-1l-1-1-1-2-1-2v-1h1q1 0 1-2l1-2 3-3q3-2 4-3h1v1h1l2-1q2-1 2 3t2 3z" fill="#4a6429" fill-rule="evenodd" stroke="#4a6429"/>
 <path d="m743 660v1h-1q0 1-3 1h-3v-1h-1v-1h-1v-2q0-3 2-4l2-1 4-1q3 0 3 2-1 3-1 4l-1 2z" fill="#47721a" fill-rule="evenodd" stroke="#47721a"/>
 <path d="m256 321v1h1l1 1h1v1h1v1h1v1h1v1h1v1h1v1l4 5q4 4 5 4v1q0 1 1 1v1h1l5 12q6 12 8 25 2 12 3 13v1l25-2q26-2 36-2 9 0 19-5t17-4q6 1 10 3 3 2 16 2t14-3q0-2 15-6 15-5 16-5h1l1-1 1-1h1v-1h1v-1h1v-1l1-3q2-4 5-4 3-2 221-2h217l1 1h1v1l1 1v4h-1v1h-1v1h-1v1h-1v1l-1 2q-1 1-5 3t-14 1q-11-1-16 0-4 2-4 3t-8 7q-6 6-15 9-8 2-12 1l-4-1-1-1v-3q0-2-3-4-4-2-11-2t-14 2q-6 4-9 7-3 4-5 10l-2 6v1h-4v-1l-1-1q-1 0-7-4t-14-4-14 4l-6 4h-1v1h-1v1h-1v1h-1v2h-1v1h-1 2l1-1 1-1 2-2q1 0 2-1l1-1h4-1v1h-1v1h-1l-1 1q-1 0-1 1l-1 2h-1v1l-1 1-1 1v1h2v-2h1v-1h1v-1h2l1-2h1l1-1 1-1h3v1h-1v1l-1 1q-1 1-1 3v4-2l1-1 1-1 1-1q1-1 1-2h1v-1h1l1-1h1v3q0 3 1 3 0 1 1 1h6v-5h1v-1h1v7-1h1v-1h1v3h-4l-2 1q-1 1-4 2-4 1-9 6t-7 12l-3 7v5h-4q-4-1-11-1h-6v-2h-2v-1l2-3 3-3 1-1v-2h1-4l-1 1-1 1h-1q-2 0-6 4l-4 2-1 1h-1v-1q0-1-2-4-1-2-2-2h-1v-1h-1v-1h-2v-1 4l1 5q1 4 2 6v3h-4l-4-1h-1l-7-4q-7-4-11-5l-5-1v1h-1v2l1 2v2h-2l-2 1h-1l1 1 1 1h4q3 1 3 2 0 2 3 2 4 0 4 1t2 1q1 0 3 1l2 1h2v3h1l1 1h1v1h1v1h-11q-7 0-10 1l-3 1v1h-1v1h-1v1h-1v1h-1l-1 1-1 1h-1v2h5l2-1q2-1 5-1h10v2h-2l-2 1-2 1-3 2q-3 2-5 10-4 7-4 12v6h2v-1l1-1 1-1v-1h1v-1h1v-1l2-2q2-2 3-1t3-3q1-4 3-4h2v-1l1-1v-1h1v-1h1v-2l1 7v7h2v-1l1-1v-5l1-1 1-1v25l1-1 1-1v-4l1-2q1-1 2-6l1-4 1-2 1-1v-3h2v1l1 1 1 1v49q0 8-1 9t-5 4-10 5q-7 2-12 2-4 0-4 1t-5 1l-4 1v1l-1 1v1h-1v1h-1v1l-1-2q-1-1-1 0-1 2-2 2l-2-1v-1h-5q-2 0-8-2-5-2-17-10-11-8-18-12t-7-5q-1-1-12-8t-19-7q-7 0-22 11-16 10-22 15-7 4-11 9-5 4-7 5-2 2-12 2h-20l-10-1-1-1h-2v-1h-1v-1h-2q-2 0-3-1l-9-9q-8-8-13-11t-12-4-10 1q-3 0-11 8-8 6-23 14t-22 8q-7 2-10 0t-7-8q-5-8-11-18-5-10-11-12t-10 0-7 7-8 11-9 7q-5 1-17-5-12-4-23-5-10-1-22 1-11 2-18 2-8 0-12-3-5-3-10-3-6 0-20 4-15 4-26 10-12 8-21 8t-41-12q-31-12-36-12-6 0-15 8t-11 10l-3 1v2h-2v-1l-1-1v1h-1l-1 1v-151l1-1 1-1 5-1q5-1 55-1 51 0 54-3 2-3 6-20 2-17 6-27t10-19 15-16l8-7 9-5q10-5 17-6t21-1 21 2 15 6 10 6q1 0 2 1zm574 68q0-1 1-1t1 1-1 1-1-1z" fill="#f4fafd" fill-rule="evenodd" stroke="#f4fafd"/>
 <path d="m823 503 1-1h3v4h5v2h-1l-1 1-1 1h-1l-1 1q-1 0-1 1 0 2-3 4l-3 3h-1v1h-1l-1 1-1 1v4h-1 3l1-1 1-1h2q2-2 6-2h3l1 1 1 1h3v1h1v1h1l-2 1-2 1h-3q-3 0-5 1l-1 1h-2l5 3q5 3 8 6 2 4 3 5l1 1v1q0 2 1 3l1 1v3h-1l-1-1h-2v-1h-1q0-1-1-1l-3-1-3-1h-1v-1h-1v-1h-2v1l1 1 1 1v1h1v1h1v-1l1 1v1l3 1q2 1 3 3 1 1 1 2v1h1v1h1v1q0 1-1 1-1-1-1 1t-1 2-2-2q-1-1-2 1-1 3-1 0l-2-3v-1l-1 2-1 1v1h-3v2l1 1v1l2 4q2 5 2 12v8q-1 0-6 1-5 0-6 2-1 3-2 1-2-2-3-2h-1v1h-1v1h-1v1l-1-1v-1h-3v-3h2q1 0 3-1 1-1 1-5l-2-5v-2l-1-1v-2h-2v2q-1 1-1 2t-1 0-4-1l-3 1h-5v-1h-1v-2l-1-2q-1-2-1-5 0-2 2-3v-2q-1-1-1-2 1-1 0-1t-2-4q-1-3 1-4 1 0 1-2 0-3-1-3-2 0-2-12v-13q0-2 2-2 2-1 2-2 0-2-1-4l-1-2-1-1v-1h6l1 1 2 1h2q2 0 2-2 0-3 1-4l1-1v-2h2v13h1v1h1v-1h3v-1h1v-1l5-6 5-6 1-1zm-2 81v3l1 1h2q2 0 2 1v1h-6l-1-2q-1-2-2-6l-1-5v-5q2-5 2-3 1 3 2 3t1 2 1 1q1 0 0 2-1 1 1 1 3-1 2 0 0 2-2 2-2 1-2 4z" fill="#185e37" fill-rule="evenodd" stroke="#185e37"/>
 <path d="m990 562v1l2 3q2 4 2 6 0 3-1 3l-1 1-1 2-1 1v3h-2l-1-1h-1v-5q0-4-3-9-2-5 0-7 1-1 3 0 0 2 1 1 0-1 1-1t2 2z" fill="#aed1d1" fill-rule="evenodd" stroke="#aed1d1"/>
 <path d="m984 646h1v1h1v2l1 1v1h2v-1q1-1 1-2v-2h1v-1h1v1h1l1 4q0 3 1 2l1-2 2 1v13q2 1 2 2v1h-1v1h-1l-2 1q-1 1-1 0-1-1-2 1l-1 2q-1 0-2-1t-2 0l-6 1q-6 2-7 3l-1 1h-5 1v-12l-1-1-1-5v-8q1-2 4-3 4-1 5-4t3-3q1-1 2 2 1 4 2 4z" fill="#4d731e" fill-rule="evenodd" stroke="#4d731e"/>
 <path d="m539 584h1v2q0 2 1 3l1 1v4l-1 2v2h1q2 0 2-2l1-2 1-1h1v1q0 1 3 2h4l5 1 5 1h1l-1 2q-2 0-28 1l-27 1v-1h-1v-1h-2v-6h1v-1h1v-1h2v-1h1l1-1 2 2q1 2 4 2t6-1q4-1 5 1 1 0 2-3t1-5q1-1 4-1 2-1 3-1z" fill="#487a28" fill-rule="evenodd" stroke="#487a28"/>
 <path d="m1104 593h1v34h-1q0-1-4-1h-3v-1q0-1-2-1h-2v-1h4v-4q-1-4-1-13l-1-9 3-1q2 0 3-1 0-1 1-1t2-1z" fill="#748d0d" fill-rule="evenodd" stroke="#748d0d"/>
 <path d="m596 556h2v2q0 1-1 2-1 0-1 1t1 2 3 1h1v2h-1q-1 0-1-1h-1v2h-2q-2 1-2 2 0 2-1 4-1 1-2 1l-2-2h-2v2l1 2v4h1v1h-1l-1 1h-2v4l-1 1-1-4q-1-4-1-5h-4q-2 1-2-1t-2-2q-2 1-3-1t-2-2l-2 1v-5h-2v-1l-1-1h-2q-2 2-3 0-1-1-2-4 0-2-2-2t-2-1-1-1h-3 1l1-1q1-1 3-2t1-2-1-3l-1-2h3q3 1 3 0t3 0q3 0 6-2 2-2 5-1t8 6 8 5h7z" fill="#2c8556" fill-rule="evenodd" stroke="#2c8556"/>
 <path d="m418 579h1v1q0 2 1 2h1v1h-1v7h2v-1h2v1h2q1 1 3 6l3 6v1h1v3h-4q-4 0-21 3l-18 3h-5v1h-1v1h-9q-7 0-31 2l-24 1h-11q-11-1-159-1h-150v-10h20q19 0 19-2 0-3 9-4 10 0 17 1t14 1 7-1 32-2 42-4 18-2 16 5q9 4 26 3 18-1 26-4t16-3l14 4q7 2 28 2h40l2-1 3-1h-2v-2h-1q-1 0-2-1l-2-1h-2v-1h-1v-1h19q18 0 21-2 3 0 19-1t18-3q2-3 1-5 0-2 1-2z" fill="#a5cfe3" fill-rule="evenodd" stroke="#a5cfe3"/>
 <path d="m786 526h1l1-1v12q0 12 2 12 1 0 1 3 0 2-1 2-2 1-1 4 1 4 2 4t0 1q0 1 1 2v2q-2 1-2 3 0 3 1 5l1 2v2h1v1h1v1q0 1 1 1t1 1v3q0 1 1 2v3q-1 2 3 15 2 12 3 14v2h-4v1h-1v1h-1v1h-2l-1 1h-1v-1h-1v-3l-1-2q-1-2-3-12l-2-9v-3q0-2-2-7 0-5-2-5-1 1-1 0t1-1 0-3q0-2-1-2h-1q0-1-1-1v-5h1v-5q0-6-1-6h-1q0-1 1-5 1-5-1-8l-2-2h1q1 0 3-5 1-5 0-5h-1l1-1 1-1h1q1 0 1-1l1-1v-1l1-2q1-2 1-3z" fill="#987e52" fill-rule="evenodd" stroke="#987e52"/>
 <path d="m566 596v-2l1 19q1 19 2 19 1 1 1 2v1l-2 1q-1 0-1 1t-4 1h-4l-1-1v-1h-8q-1 0-27-6t-37-6h-14q-1 0-14-3-14-3-41-5l-27-2h-6v-1h1v-1h5l18-3q17-3 21-3h4v-3h1q1 0 1 1t1 0q2 0 1-1t0-4v-3h2v1h1v1h11q2 2 5 2h8q1 0 1 1l1 1 3-1q3-1 5-1h5q3 0 3-2-1-2 0-1 2 1 3 1h1l1 1 1 1h4q3 0 4-1 0-1 4-1h6v2h2v1h1v1l27-1q26-1 28-1l1-2q1-1 1-2z" fill="#718f0d" fill-rule="evenodd" stroke="#718f0d"/>
 <path d="m584 586q-1 0 0 1 0 1-2 1-3 2-8-3l-5-4q0-1-1-1h-1v-1l-1-1v-1l1-2v-2l2-1q1 0 2 2t3 1q2 0 2 2t2 1q3 0 4 3 2 4 2 5z" fill="#bbd8d7" fill-rule="evenodd" stroke="#bbd8d7"/>
 <path d="m620 643-1 1q-1 1-4 2h-4v-2q0-3 5-4h5q1 0 1 1t-1 1-1 1z" fill="#477618" fill-rule="evenodd" stroke="#477618"/>
 <path d="m828 391 1 1h-3v-1h-1v-1h-1v-1h-1v-1h-2v1l1 1v2l1 1 1 1v2q0 2-2-1t-2-1q0 1-2 1l-1 2-1 2v2h4q4 1 5 1h1l6 4 6 4h1v1l1 1v1q2 1 2 2v1l1 1 1 1v2h-1v-1h-1v-1h-1v-1h-1v-1l-2-2-2-1v-1h-1l-1-1h-1v1q1 2 1 5v3l-1-2-1-1v-1q0-2-1-3l-1-1-1 2q-1 3-1 2-2-2-2 0v3h-2l-1-1h-2l-1-1q-1 0-1-4l-1-4v-1l-1 4-1 3v-1h-1l-1-2q-1 0-1 2v2h-3v-1q0-1-2-2l-2-1v1l1 1q1 1-1 1l-2 1v-1h-1v-1h-2v1h1v1h1v1h1v1h1v1h1l8 3q8 3 12 7t6 11q4 8 3 14-1 5-1 6 0 2-1 4l-1 1v2h-1v1h-1v2h-1v1h-1v1h-1v1h-1v-2h1v-1h1v-1l1-1 1-2v-3l-1 1q-1 1-3 2h-2l1-1 1-1v-1q0-1-1-1t-1-1-3-1-3-1q1-1 0-2v-2l1-3q0-4 2-5l2-1h1v-3h-1q0 1-1 1-2 2-2 0v-3l-1-1v-1h-5q-4 1-5 1t-5 1q-3 0-2 1v2q-1 1-1 2 0 2-1 2t-2 3v2h-1v1h-1v-1q0-1-2-3 0-2-1-1l-1 1h-1v-1h-1v-1l-1 2v1h-1v1h-1q-1 1-2 4l-1 3v1h-2v-1q0-1-2-2-1-1-4 1l-2 2h-2v-4q0-3 1-4v-1h-1l-2 1-2 2-2 1v-2h-1v1h-2v-4l2-6 2-4h1v-1h1v-1h-3q-2 0-3 1h-1v-1q0-2 2-4v-1h1v-1h1v-2h-4l-1-1v-1h-2v4l-1 4-1-2q-1-2-1 1v3h-1v-1h-1v-1h-1l-1-1-1-1h-1v2h1v1h1v1q0 1 1 2 1 0 1 2v3l-1 1-1 1v1h-1v-1h-1v-1q0-1-2-2-1 0 0 2v2q-1 1-2-1l-1-1v-1h-1v2l1 1q1 2 1 4v1h1v1h-2v-1h-1v-1h-1v-1l-1-1v-3l-1 1-1 1v-1q0-1-2-2h-1l3-7q2-7 7-12t9-6q3-1 4-2l2-1h4v-3h-1v1h-1v1l-1-2-1-2v3h-6q-1 0-1-1-1 0-1-3v-3h-1l-1 1h-1v1h-1q0 1-1 2l-1 1-1 1-1 1v2-4q0-2 1-3l1-1v-1h1v-1h-3l-1 1-1 1h-1l-1 2h-2v1h-1v1h-1v2h-2v-1l1-1 1-1v-1h1l1-2q0-1 1-1l1-1h1v-1h1v-1h1-4l-1 1q-1 1-2 1l-2 2-1 1-1 1h-2 1v-1h1v-2h1v-1h1v-1h1v-1h1l6-4q6-4 14-4t14 4 7 4l1 1v1h4v-1l2-6q2-6 5-10 3-3 9-7 7-2 14-2t12 3q6 3 6 4t-2 1h-2v1zm-65 20v-1h1q0 1-1 1z" fill="#1a603c" fill-rule="evenodd" stroke="#1a603c"/>
 <path d="m580 315h2q0 1-18 11t-26 10q-7 0-26-3l-20-4h-2q-2-1-17-4l-15-3v-1q0-1-3-1t-12-2l-9-1v-1h-3l1-1 1-1 25-1q24-1 66-1 43 0 42 1 0 1 6 1 7 0 8 1z" fill="#56bcf4" fill-rule="evenodd" stroke="#56bcf4"/>
 <path d="m1001 630 5 2q6 2 4 4 0 3 1 5t1 5v4h1v1h1v-1h1v-1h1v-1h3l-1 3q-1 3-2 3t-4 6-4 6-1 1l-1 1v1l-1 1v2h-1l-1-1-1-1h-3v-3h1v-1q0-1-2-2v-13l-2-1-1 2q-1 1-1-2l-1-4h-1v-1h-1v1h-1v2q0 1-1 2v1h-2v-1l-1-1v-2h-1v-2h1v-4q1-3 5-4t5-3q0-3 2-3l3-1z" fill="#5f791e" fill-rule="evenodd" stroke="#5f791e"/>
 <path d="m422 318h7l7 1q8 1 10 2t7 1h5l15 3q15 3 17 4h2q0 1-18 1h-17l-2 1q-2 1 3 1h-1q-5 0-6 2-1 1-3 1-2 1-4 3l-3 2h-1q-1 0-4 2t-73 3-75 1q-4 0-8-2l-5-3v-1h-1q0-1-1-1v-1q-1 0-5-4l-4-5v-1h-1v-1h-1v-1h-1v-1h-1v-1h-1v-1h3l2 1h1v-1h1v1h2q3 0 3-1t63-1q62-1 72-2 9-2 16-2z" fill="#75c8f7" fill-rule="evenodd" stroke="#75c8f7"/>
 <path d="m694 439v-2 1h2v1h1v1h1q1 0 2 2 2 3 2 4v1h1l1-1 4-2q4-4 6-4h1l1-1 1-1h4-1v2l-1 1-3 3-2 3v1h2v2h6q7 0 11 1h4v-5h1q2 1 2 2v3h1v1h2l-1 1-1 1h-1l1 4q0 5 3 7l4 3h1v1h1v1h1l1 1h1v2h-1l-1-1h-4l-3-1q-2 0-2 1 0 2-2 1l-1-1h-1l-2-1-1-1h-2v1l1 1v2h2l1 1q1 0 3 3 2 4 3 5l1 1v1l1 1 1 1v6-1h-1v-1h-1v-1h-2v-1h-1v-1h-1l-4-3-3-3h-1v-1h-1v-1h-2l-2-1h-2v1l1 1v2h1v1h1v1q0 1 1 1v1h1v2h1v1h-1q-1 0-2-2l-2-2v2l2 6q2 6 2 8v9h-1v-1h-1v-1h-1q0-1-2-2l-1-2-1-1v-1h-2v3q-1 3-1 4v2l-1-2-1-1v-1h-3v-2q-1-2-1-7-2-5-2-4t-2 1h-2v-7l-1 6v9l-1 2v-2h-1v-1h-1v-1q0-1-1-2l-1-2v-1l-1-1-1-1v-1h-2v3l-1 1-1 2-1 4q-1 5-2 6l-1 2v4l-1 1-1 1v-25l-1 1-1 1v5l-1 1v1h-2v-7l-1-7v2h-1v1h-1v1l-1 1v1h-2q-2 0-3 4-2 4-3 3t-3 1l-2 2v1h-1v1h-1v1l-1 1-1 1v1h-2v-6q0-5 4-12 2-8 5-10l3-2 2-1 2-1h2v-2h-10q-3 0-5 1l-2 1h-5v-2h1l1-1 1-1h1v-1h1v-1h1v-1h1v-1l3-1q3-1 10-1h11v-1h-1v-1h-1l-1-1h-1v-3h-2l-2-1q-2-1-3-1-2 0-2-1t-4-1q-3 0-3-2 0-1-3-2h-4l-1-1-1-1h1l2-1h2v-2l-1-2v-2h1v-1l5 1q4 1 11 5l7 4h1l4 1h4v-3q-1-2-2-6l-1-5v-2zm44 22-2-1h-2q-1 0-5-1t-3-1h1l5-2q5-2 6 2 1 3 0 3z" fill="#185d39" fill-rule="evenodd" stroke="#185d39"/>
 <path d="m900 630 3-4h2q2 0 2 2l1 3h1v1h1l1 1q1 1 2-1t2-2h1v2q-1 0-1 1h-1v2l-1 1-1 2v3l-1 3q-1 4-1 6v2h-1q-1 0-1-1t-2-1q-2-1-2 0v1h-1v1h-5l-1 1h-2v-1h1v-6q0-3 1-8 1-4 3-8z" fill="#4f761b" fill-rule="evenodd" stroke="#4f761b"/>
 <path d="m456 582h3l2 1h2l1 1q2 2 1 6t-2 2q-1-1-2 0h-4q-2 0-2-1 1-1 0-5-1-3 1-4z" fill="#407e72" fill-rule="evenodd" stroke="#407e72"/>
 <path d="m679 611 1-1h4l1 1 1 1 1 1 1 1v1l2 3v5q0 1-1 4v3h-1v1q-1 1-4 1-3 1-4-2 0-4-2-4-1 0-1-1t-2-1-2 2q-1 1-1 0l-1-2v-1q1-1 1-3v-1h1v-1h2q2 0 3-4 0-3 1-3z" fill="#3a6f19" fill-rule="evenodd" stroke="#3a6f19"/>
 <path d="m1099 553h1v6l1 1v2h4v31h-1q-1 1-2 1t-1 1q-1 1-3 1l-3 1v-1q-1-2-3-20l-3-19h3v1h2l2 1q1 0 2-3 0-3 1-3z" fill="#1d5e2c" fill-rule="evenodd" stroke="#1d5e2c"/>
 <path d="m625 581-2-3 11 1q12 1 12 0t1-1h1l-2 2q-1 2-1 3h-1q0 1-7 3-7 4-8 1t-4-6z" fill="#a0cbd3" fill-rule="evenodd" stroke="#a0cbd3"/>
 <path d="m1088 551v-2l4 1q4 0 4 1h1v1h-4l-3 1h-1q-1 0-1-2z" fill="#38684f" fill-rule="evenodd" stroke="#38684f"/>
 <path d="m910 491 1-3 1-1v9q-1 8 0 8t2 24q2 25 2 28 1 2 2 3l1 10q1 10 2 11v1l2 9q3 9 3 10v1l1 6q1 6 2 10l1 4v1h-1l-1 1-2 1h-2v1h-1v1h-3v-4h-2q0-1-3-14l-3-14v-8q0-3-1-8t-4-5l-3 1-1-1v-1h3q3 0 3-2t-1-2-1-1q1-1 1-4t-1-3h-1l1-1q1 0 0-29l-1-30v-1q0-1 1-2l1-1v-1q0-1 2-4z" fill="#9f7e53" fill-rule="evenodd" stroke="#9f7e53"/>
 <path d="m0 616h150q148 0 159 1h11q0 1-4 1-3 2-2 2 2 2-6 3-7 1-6 2t-2 1l-4 2h-4l-2 1-1 1h2l3 1 3 1 47 9q48 9 68 14 21 5 22 5h2l2 1 3 1 25 6q26 6 27 7l1 1h3l3 1 2 1h-4l-1 1-1 1h-2l-3 1q-3 1-6 1t-85 1-125 1q-43 2-44 2h-75q-8 0-80-1t-74-1h-1v-1l-1-1v-66z" fill="#bee0f9" fill-rule="evenodd" stroke="#bee0f9"/>
 <path d="m1063 635v-1h5v10q2 5 2 6 2 1 2 2v2h1q1 0 1 1v1h1v1h1v1l1 1 1 1v-1l1-1 1-1v-2l1-1v-2h3q2 0 2-1 1-1 2-1h1v2q-1 1-1 4v2h1v1h1l3-4q4-3 5-4 2-1 2 1 1 2 2 2 0 1-2 4l-2 2v1l-1 1v2l3-1q3-1 4-2h1v41h-1v6h-1l-1 1q0 1-4 1h-5q-1-2-3 0-1 0-4 1l-3 1v-1q-1 0-1-4-1-4-3-4l-4-2q-2-1-7-2-4-1-5-3t-2-2l-1 1v-5q0-4-2-6-2-1-2-4 1-3 0-3-2 1-5 1h-3l1-1 1-1 1-2v-4l1-2v-4q0-4 3-4 2-1 2-2-1-1-1-10v-8h2v-1h1v-1h1v-1h1v-1h1v-1h1z" fill="#4a7617" fill-rule="evenodd" stroke="#4a7617"/>
 <path d="m426 316h8v1h-2l-3 1h-7q-7 0-14 1-8 1-8 2t-1 1-1-1-1-1q-1 1-63 2-63 0-63 1t-3 1h-2v-1h-1v1h-1l-2-1h-4l-1-1h-1v-2h3v-2h4q3 0 6-1 4-1 69-1 66 0 66-1t1-1 1 1q1 1 8 1h12z" fill="#55bbf4" fill-rule="evenodd" stroke="#55bbf4"/>
 <path d="m476 592h-2v-2q0-3-1-4t5-1 5 4-2 5q-2 0-3-1 0-1-2-1z" fill="#407f72" fill-rule="evenodd" stroke="#407f72"/>
 <path d="m604 577 2-1v2l-1 2q-1 3 1 4 2 2 3 2l1 1 2 3 3 3 1 1h2q1 0 3 1 2 0 1-8v-9h1l2 3q3 3 4 6t8-1q7-2 7-3h1v3l-2 2q-2 2-2 3h-1v2h1v1h1v1h1v1h1l1-1v-1h4q5 0 5-1 1-1 2 2 0 3 1 3l1 1 2 1h1v1h1v2h3v1h-26q-16 0-34-1-18-2-19-9l-1-6v-6h2l1-1h1v3h2v-1h1v-1h1q1 0 1-1 1-1 4-2t4-1h1l1-1z" fill="#3f7321" fill-rule="evenodd" stroke="#3f7321"/>
 <path d="m383 614h7l31 7q31 7 33 8h2l2 3q3 2 4 3l1 1 4 1q4 1 5 2 0 1 3 2t3 2q1 1 2 1h1q-1 0 2 1 3 0 3 1l2 1v1h1l1 1 1 1h1v3h1v1h-4v2h-3l-2-1q-2-1-9-1t-20 3l-13 3h-8q-1 0-22-5-20-5-68-14l-47-9-3-1-3-1h-2l1-1 2-1h4l4-2q3 0 2-1t6-2q8-1 6-3-1 0 2-2 4 0 4-1l24-1q24-2 31-2h8z" fill="#fadcba" fill-rule="evenodd" stroke="#fadcba"/>
 <path d="m647 572h5v1h-1l-1 1v3h-1v1h-2v1h-1v1h-2q-1 0-11-1l-10-1h-1v1l-1 1q0 1-1 1-2 1-1 3t-4 2l-5 1-1-1q-1 0-3-2-2-1-1-4l1-2v-2l-2 1-1 1h-1q-1 0-4 1t-4 2q0 1-1 1h-1v1h-1v1h-2v-4h-1v-4l-1-2v-2h2l2 2q1 0 2-1 1-2 1-4 0-1 2-2h2v-3l-1-1q-1-1-1-2t1-1q1-1 1-2v-2h-9q-3 0-8-5t-8-6-5 1q-3 2-6 2-3-1-3 0t-3 0h-3l1 2q0 2 1 3t-1 2-3 2l-1 1h-1 3q1 0 1 1t2 1 2 2q1 3 2 4 1 2 3 0h2l1 1v1h2v7l-1 2-1-1h-1l-1-1q-1-1-5-1-3-1-2 2 0 2-2 2l-2 1h-2q-2 1-4 1-1 0-1 2v2q-1 0-1 1t-2 0l-2-1h-1q-1 0-3 1-3 0-4 1 0 2-1 5t-2 3q-1-2-5-1-3 1-6 1t-4-2l-2-2-1 1h-3q-1 0-1-3-1-4-2-6-2-2-6 0l-4 1v-1h-5q-2 0-12-1l-11-1-9-1q-10-1-12-2l-3-1h-4q-1 1-1 2v1h-2l-1-1h-5l1-1 1-1h2l1-1 1-1h2l5-1 5-1h9v-1h1v-1h5-1v-1l10 1h20q10 0 12-2 2-1 7-5 4-5 11-9 6-5 22-15 15-11 22-11 8 0 19 7t12 8q0 1 7 5t18 12q12 8 17 10 6 2 8 2z" fill="#cce4ec" fill-rule="evenodd" stroke="#cce4ec"/>
 <path d="m687 591v1h-1l-1 1q-1 1-4 2t-3 3-5 3l-5 1h-2q-1 0-1-2 1-1 3-4 2-2 2-4v-2h1v-1h1v-1h4l4-2q1 0 1 1 0 2 3 3 2 0 3 1z" fill="#3b9398" fill-rule="evenodd" stroke="#3b9398"/>
 <path d="m1034 555 1-1h2q1 1 1 3 0 1-2 2l-2 1h-1q-1 0-2 1-1 0-1-2t2-3q2 0 2-1z" fill="#c3decf" fill-rule="evenodd" stroke="#c3decf"/>
 <path d="m773 580v-1h1q0 1 2 1h1v-1q1 0 1-1v-2h1v1q1 0 1 1h1q1 0 3 8t2 10v4q0 2-18 2t-18-1l-1-1h1q1 0 2 1 0 1 1-3 1-3-2-5-3-1-5-3l-2-2-2-1q-2 0-3-2l-1-2h-1q-1-1-2-1l-1-1v-1h-2l2-1 1-1h2v-2l-1-3v-1h7l1 2q1 0 2 1v1h1l1 1v1h1l1 1v1h1l1 1v1h1l1 1 1 1q1 2 2 2v1h1v1h1l3 1h3v-3q-1-3-1-4v-6q-1-5 1-4 1 0 3 5t4 5q1 0 1-2z" fill="#316b28" fill-rule="evenodd" stroke="#316b28"/>
 <path d="m528 639h1l11 2q10 1 11 2l1 1h2l1 1 1 1 8 2q8 2 14 2 7 0 10 1h21q17 1 29 1h16l17 4q17 4 25 6 9 2 10 3l2 1h-2q-2 0-1 1l2 2 2 2h1v5q1 1 20 8 20 8 37 10t21 3l3 1h4v1h-14q-14 1-26 1t-27-4-24-6-12-4q-2-3-8-4-5 0-6-1-2-1-5-2-4-1-7-1h-2q0-1-8-3-9-1-46-3-37 0-44-2t-16-5q-10-3-24-6l-14-3v-2q0-2 2-3 3-1 1-2-1-2-3-3h-1v-1h-1v-1h-1v-1h1v-1h5l6-2q6 0 7-1z" fill="#edcb94" fill-rule="evenodd" stroke="#edcb94"/>
 <path d="m467 580h-5l1 1q1 0 1 1t-1 1h-1q0-1-2-1h-4q-2 1-1 4 1 4 0 5 0 1 2 1h4v3l-1 3v2h-4q-3 0-5-2h-11v-1h-1v-1l-1-1v-8l1-1 1-1q2-1 2 1 0 1 1 1h1v-6q0-2-2-3l-2-2h2q2-1 2 0 1 2 12 2l11 2z" fill="#98c5d0" fill-rule="evenodd" stroke="#98c5d0"/>
 <path d="m0 363v-51l5 1q5 1 74 2t73 1q3 2 6 2h3l-8 7q-9 7-15 16t-10 19-6 27q-4 17-6 20-3 3-54 3-50 0-55 1l-5 1-1 1-1 1v-51z" fill="#8cd1f7" fill-rule="evenodd" stroke="#8cd1f7"/>
 <path d="m738 584v-1l1 2q1 2 3 2l2 1v1q0 1-1 1t-1 1l-1 1h-1q-1 0-3 4l-2 3h-1l-1 1h-2l-1-1q-1-1 0-3 0-2-1-2h-1v-2h1v-1h1l1-1h1q2-1 2-2t2-1q1 0 1-1 1-1 1-2z" fill="#358f91" fill-rule="evenodd" stroke="#358f91"/>
 <path d="m797 591v-2l2 2q2 3 4 3t3-1v2h3v1l1 1v-1h1v-1h1v-1h1q1 0 3 2 1 2 2-1 1-2 6-2 5-1 6-1v2q0 1 2 1h4l1 1h73v-1h1v-1h1l3 14q3 13 3 14h-2q-2 0-4 1-1 1-2 4l-2 3v1l-1-3q0-2-2-2h-2l-3 4q-2 4-3 8-1 5-1 8v6h-1v1h-1v1h-1l-1 1h-1v-6h-2v1l-1 1v1h-1v1h-1v-3h-1v-1h1v-7q0-4 2-6 2-1 2-2l1-2h2v-1l-1-1v-1h-1v-1h-2l-3-1-2-1h-3l-3 1q-3 1-4 1l-2 1v3l-2 2v4q0 2-5 2t-5 1-3 0l-3-1-1-1h-1v9h2q1 0 1 2l-1 1v1h-1v1h-1v1h-1v3h-1q-1 0-1-3 0-2-1-2t-2 3l-2 2q-1 1-4 1h-6q-3-2-6-2t-5 1q-1 0-1-3 1-2-1 0l-2 1h-1q-1 0-1-2t-1-2l-2 1v-1h-1v-1h-1v-8h2q3 0 4 1h1v-2h1l1-1h-2v-1q-1-1-3-5l-2-3v-1h-1l-1-1q-1-1-1-2 1-1-4-3l-4-2v-2q-1-2-3-14-4-13-3-15z" fill="#6d8b0b" fill-rule="evenodd" stroke="#6d8b0b"/>
 <path d="m702 546v-7l1 9 1 9 2 15q2 14 2 17t-2 3h-1v-2l-1-2q-1 0-1 1h-1v1-2q0-1-2-2-1 0-2-2 0-1-15-2h-15q0-1-1-1t-1-1 1-1q1-1-2-1-3-2-1-4l2-2h-5v1h-1v1h-1v1h-1v-2h1v-1h1v-1l1-1v-1l4-1q5 0 5-1t4-1q5 0 12-2 6-2 10-5t5-4 1-9z" fill="#d8e9f0" fill-rule="evenodd" stroke="#d8e9f0"/>
 <path d="m474 624h12q11 0 37 6t27 6h8v1l1 1v4h-3l-1 1-1 1h-2l-1-1q-1-1-11-2l-11-2q0-1-3-1-2 0-2-1t-3-2-15-3l-13-3v-1h-5l-2-1-2-1h-2q-3 0-6-1l-2-1z" fill="#a4ae3f" fill-rule="evenodd" stroke="#a4ae3f"/>
 <path d="m850 657h1v-2q1 0 1-1h1v-1q1 0 1-1h2v-1h1v-1h1l-1 4q-1 3-1 5 0 3 2 3 1 0 1 2 1 3 1 4v1q0 1-2 1h-7q-1 0-1 1t-1 1-1 3q-1 3-1 4h-1q0 1-2 0h-4v1h-4l-2 1h-2v-9l1-1q0-1 4-2 5-1 6-7l1-5 2-3q2-4 3-4t1 4q-1 3 0 3z" fill="#336b1e" fill-rule="evenodd" stroke="#336b1e"/>
 <path d="m497 679 1-1h4l17 6q17 6 19 8 1 0 1 1h1v1h1v1h1v1h1v1h1v2h-1v1h-1v1h-1v1h-1l-1 1q-1 1-11 5-11 4-54 14-42 10-57 16l-15 4-1 1-1 1h-1v1h-1v4h1l1 1h1l8 4q9 3 11 4 4 2 4 3t3 3q3 3 3 4v2l1 3 1 3v2h-2v-2h-4q-2 0-212 1t-210 2-2 1l-1-1v1l-1 1v-99l1 1v1h1q2 0 74 1t80 1h75q1 0 44-2 43 0 125-1t85-1 6-1l3-1h2l1-1z" fill="#62b7f5" fill-rule="evenodd" stroke="#62b7f5"/>
 <path d="m458 632-2-3 3 1h13q10 0 16-1h5l13 3q12 2 15 3t3 2 2 1q3 0 3 1h-1q-1 1-7 1l-6 2h-5v1h-1v1h1v1h1v1h1q2 1 3 3 2 1-1 2-2 1-2 3v1h-2q-2-1-10-3l-8-2h-1l-1-1-1-1h-1v-1l-4-1q-4-2-3-2h-1q-1 0-2-1 0-1-3-2t-3-2q-1-1-5-2l-4-1-1-1q-1-1-4-3zm27 12h1-1z" fill="#e7ca8e" fill-rule="evenodd" stroke="#e7ca8e"/>
 <path d="m1060 695h-1q-1 1-3 0-3 0-3 1t-2 1q-2-1-3-2 0-1-2-1-3 0-3 1v1h-2v-2h1v-2l1-2q0-3 1-3t1-3l-1-4h1l1-1q1-1 2-1h3q3 0 5-1 1 0 0 3 0 3 2 4 2 2 2 6v5z" fill="#5b8012" fill-rule="evenodd" stroke="#5b8012"/>
 <path d="m563 575 1 1h1l1 1v1l1 1v5q-1 3-1 6v6q0 1-1 2h-1l-5-1-5-1-4-1-4-1q1 0 1-1v-1h3q2 0 6-1 3 0 3-1 1-1 0-2-1 0-1-2 0-1-3-3-3-1-3-3v-1l2-1q2 0 2-2-1-3 2-2 4 0 5 1z" fill="#2e692e" fill-rule="evenodd" stroke="#2e692e"/>
 <path d="m1026 434q0-5 2-4 2 0 1 1t1 1q2 1-1 4-3 2-3-2z" fill="#acd7cc" fill-rule="evenodd" stroke="#acd7cc"/>
 <path d="m778 574 1-2v4q1 0 1 1v1q-1 0-2 1l-1 1h-1q-2 0-2-1v-2q0-2 1-3 0-2 1-2t1 2q1 1 1 0z" fill="#84b8ac" fill-rule="evenodd" stroke="#84b8ac"/>
 <path d="m570 635 1 1 4 2q4 1 5 0 0-2 1-2l1 3q2 3 2 4t1 1 9 1l8 1h1v1l-1 1-1 1-1 1h-8v1h-4q-3-1-10-1-6 0-14-2l-8-2-1-1-1-1 1-1 1-1h3v-4h4q4 0 4-1t1-1l2-1z" fill="#abaf38" fill-rule="evenodd" stroke="#abaf38"/>
 <path d="m663 613h3q2-1 4-1h1v2q0 1-1 2-2 0-2 1v1l-3 1q-2 1-3-1 0-1-12-1h-11v-2h1l1-1 4-2q4-2 9-2 6 0 7 1 1 0 1 1t1 1z" fill="#20710c" fill-rule="evenodd" stroke="#20710c"/>
 <path d="m492 652v-2l8 2q8 2 10 3h2v1l14 3q14 3 24 6 9 3 16 5t44 2q37 2 46 3 8 2 8 3h2q3 0 7 1 3 1 5 2 1 1 6 1 6 1 8 4 3 2 12 4t24 6 27 4 26-1h14l13 2q12 3 15 3h3l2 1 1 1h4l25 4q24 2 50 6 27 4 49 12 22 6 41 16t38 22q20 13 20 14t14 10q14 10 21 14 6 4 7 4h1l1 1 1 1h1v1h1v1h2v92h-540l-263-1-264-1h4l2-1 1-1h2q2 0 39-8 38-8 94-17t104-15q49-6 82-11 32-5 52-11 19-6 28-10t11-7q2-2 3-2t2-5q0-5-2-7t-2-3-6-4q-7-4-12-8-4-5-6-10l-2-4q0-1-1-1v-3l-1-4v-2q0-1-3-4-3-2-3-3t-4-3q-2-1-11-4l-8-4h-1l-1-1h-1v-4h1v-1h1l1-1 1-1 15-4q15-6 57-16 43-10 54-14 10-4 11-5l1-1h1v-1h1v-1h1v-1h1v-2h-1v-1h-1v-1h-1v-1h-1v-1h-1q0-1-1-1-2-2-19-8l-17-6-2-1-3-1h-3l-1-1q-1-1-27-7l-25-6-3-1-2-1h6l8-2q7-2 6-2-2 0 12-1t16 0l2 1h3v-2h4v-1h-1v-1z" fill="#fcd7b2" fill-rule="evenodd" stroke="#fcd7b2"/>
 <path d="m969 664v-1l1 1v12h-1 4l1 1q2 1 2 2l-2 1q-2 0-1 2 0 2 1 3 2 1 4 1h2v2h-1v1h-1v1l1 1 1 1v1h1v1h2v1h1v1h-1l-1 1h-2v1h-4q-3 0-4 1-2 1-4 0-2 0-2-2t-4-2h-3v-1l-1-1v-11q0-5-2-6l-1-1v-1h5q6-1 7-5t2-5z" fill="#547a17" fill-rule="evenodd" stroke="#547a17"/>
 <path d="m439 576h4v4q1 3 1 5v2h-1q-1 0-1-1 0-2-2-1l-1 1h-1v1h-1q-1-1-3-1-1 0-2 1 0 1-2 1-1 0-2 1l-1 1v-1q-1 0-1 1h-1l-1-1q0-1-1-1h-1v2h-2v-7h1v-1h-3v-2h1v-1h1l1 1h1q1 0 1-1t3-1h9l1 1h2v-1q0-1 1-2z" fill="#438176" fill-rule="evenodd" stroke="#438176"/>
 <path d="m1072 536h1l1 5q0 5 1 5t1 2 2 18q2 17 1 17v1h-1v2q-1 2-4 5-4 3-5 0t-2-3-1 2-2 4q-1 2-2 0 0-2-1-2h-3q-3 0-5-1t-2-2-3-1-2 2q0 3-4 1-3-3-5-1l-2 2h-1v-1q0-1-2-5v-4h-1l-1 1-1 1h-1v1l-1 1q-1 2-1 4-1 1-2 1l-1 1h-1v1h-1v1h-1v-1l-1-3-1-3h-1l-1 1h-2v2l-1 1v1h-3v-2l-1-2q-1-1-1-3t2-3q1 0 1-1-1-1-2-1-2 0-3-7t1-8q1-1-1-1-2-1-2-2v-2h2l2-1 1-1h2v-1h1v-3q0-1-2-2h-1v-1h-1v-1h3l4 1q4 1 4-1 1-1 1-2v-1h1v-1h1v9h1v1h3v-1l4-5 4-4v-1h1v-1h3v2q0 1 1 2 1 0 1 1-2 1-2 2v1h3l1 1 2 1h2v-5l1-1v-1h2v10h1l1-1h2v-2h-2l1-1 1-1 4-3q5-4 4-6-1-1 4-1 5 1 6-2l1-4zm-38 19 1-1h2q1 1 1 3 0 1-2 2l-2 1h-1q-1 0-2 1-1 0-1-2t2-3q2 0 2-1z" fill="#175c2f" fill-rule="evenodd" stroke="#175c2f"/>
 <path d="m894 424 1 2q1 1-1 1-2 1 1 2t4 2l1 1h2v2l1 1 1 1v1l1 1v1h-2l-2-1h-1v-1h-1v-1h-1l-1-1q-1-1-5-4l-4-3 3-2q3-1 3-2z" fill="#b3dbd0" fill-rule="evenodd" stroke="#b3dbd0"/>
 <path d="m916 622h4v4l-1 1q0 1-1 1h-1v1q1 1 1 2v1h-1l-1 1v1h-1v-1q0-1-1 0-2 1-3 0l-1-1h-1v-1h-1v-1l2-3q1-3 2-4 2-1 4-1z" fill="#527716" fill-rule="evenodd" stroke="#527716"/>
 <path d="m736 662h3q3 0 3-1h1l2 1q1 0 2 2v3h5q5 1 6 1v1h1v1h1v1h1v1h3l-2 1-2 1h-12q-9 0-15-2l-6-2v-1h-1v-1h-1v-1h-1v-2l-1-1v-1l4-1h9z" fill="#b9b55b" fill-rule="evenodd" stroke="#b9b55b"/>
 <path d="m870 557h1l3 1q2 0 3 1l1 1h-1l-3 2q-4 2 0 2 4 1 6 0t2 0 4 2q5 1 6-1 1-3 2-3t1 4 1 4q2 0 6-5 3-5 4-5h1q1 0 1 3t-1 4q0 1 1 1t1 2-3 2h-3v1l1 1 3-1q3 0 4 5t1 8v8h-1v1h-1v1h-73l-1-1h-2v-2h1v-1h1v-1l2-4q2-4 3-9t-2-5q-3-1-3-4l1-4q1 0 1-2t1-1q1 0 1-1v-1h1l1-1 1-1h1q1 0 2-1 2-1 2-2 0-2-1-3-1 0-1-1v-1l4 1q5 1 5-1 1-1 1-2v-1h1v-1h1v8h4v-1l1-2q1-2 5-4 3-3 4-1 0 1 1 1t1 1-1 1-4 4-3 5q0 2 2 0 2 0 2-1zm11 13q1-2 3-2 2 1 1 2 0 2-3 2-2 1-1-2z" fill="#21632f" fill-rule="evenodd" stroke="#21632f"/>
 <path d="m1104 467h1v95h-4v-2l-1-1v-6q0-1-2-1l-1-1h-1q0-1-4-1l-4-1v-3q0-3 2-6l2-2-2-1q-1 0-1-1 0-2-2-2t-3-10q-2-9-2-32v-23 1h2q2-1 3-4 1-4 3-4 1 0 2-2t6 2q4 4 6 5z" fill="#f7faf9" fill-rule="evenodd" stroke="#f7faf9"/>
 <path d="m670 590v2q0 2-2 4-2 3-3 4 0 2 1 2h1v1h-5v-2h-1v-1h-1l-2-1-1-1h2v-1h1v-1q0-1 1-1t3-3q2-4 4-4 1 0 1 1l1 1z" fill="#3d7a3b" fill-rule="evenodd" stroke="#3d7a3b"/>
 <path d="m742 592v-1 3q1 4 3 5t3 1h1l1 1v1h18q18 0 18-2v-1l2 9q2 10 3 12l1 2v3h1v1h1l1-1h1v1h-1l-3 1q-3 1-4-1-2 0-4-1-2 0-7 1-5 2-6 6t-4 5q-2 1-2 3l-1 1v-1h-4q-1 0-2-2 0-2-3-3-2-1-4-3-2 0-7-1-6 0-6 1 0 2-2 2-1 1-2 6v5h-1v1h-2l-1-1h-2v-3h-1v-1h1v-1q0-2-2-2h-2v-2l1-1h2v-5l-2-10q-1-6-3-14l-2-7v-2h1l1-1h1l1 1h2q1 0 1-1 1-1 1-2h1q1 0 1 2-1 2 0 3l1 1h2l1-1h1l2-3q2-4 3-4h2z" fill="#6a890b" fill-rule="evenodd" stroke="#6a890b"/>
 <path d="m702 590h1v-1q1 0 1-1l1 2v4l1 2h2q2 0 5 9 3 10 4 15 1 6 2 8l1 3v1h1l1 1 2 1h1v1l-1 1q-1 0 0 1l1 1h-1q-1 0-2 1l-2 1v2h-1v1h-1v1h-3l-2 1v-1q-1 0-1-2 0-1-4-2h-4q-1 0-8-1-6-1-6-5l-1-4v-3q1-3 1-4v-5l-2-3v-1l-1-1-1-1-1-1-1-1h-4l-1 1q-1 0-1 3-1 4-3 4h-2v1h-1l-1 1h-1v1l-1-2-1-2q0-1 2-1 1-1 1-2v-2h-1q-2 0-4 1h-2 1q1 0 1-1t-2-1h-1v-1l1-1v-1l-1-1v-1l2-1q1-1 2-1v-1q1 0 1-1l5-1q5-1 5-3t3-3 4-2l1-1h1l2 1q2 1 5-2t4-3q2 0 2 2 0 1 1 1l1-1z" fill="#658513" fill-rule="evenodd" stroke="#658513"/>
 <path d="m1104 374h1v93h-1q-2-1-6-5-5-4-6-2t-2 2q-2 0-3 4-1 3-3 4h-1l-1-1v-1l-2-2q0-1-2-10l-1-8q-1 0-3 2l-2 2v-1q0-1-2-5t-4-5q-3-1-6 1-2 2-4 9-1 6-3 5-1-1-3-8-2-8-5-6-2 1-2-2 0-2-3 0-2 3-7 6l-5 2q-1 0 1-3 3-3 3-5 1-2-2-1-4 1-5 3l-1 3v3l-1 2v2q-1 0-3 5l-2 5h-2v1l-1 1-1 1v1h-1v1h-1q0 1-2 2t-2 0 2-2 2-2v-1l1-1 1-1q0-1 1-2l1-2v-4l-1 1-1 1-3 1-3 1v-2h1l1-1 1-1h1l2-3 2-3v-1l1-1 1-1v-1h-6 2v-1h1v-1h-1q-1 0-2 1-1 0-1 3v2h-1q-1 0-4-2-2-1-4-3l-1-3h-1v-2l-1 2v1h-1v1q-1 0-1 1h-1q0 1-1 3l-1 2v1h-1v-1h-2v-2l-1-1v-1q0-2-1-10l-1-7v1q0 2-1 3l-1 1v1h-1v-1h-1v-2q0-3-1-4l-1-2h-6l-1 4-2 6-1 3v-1l-1-1-1-1v-1q0-1-1-2l-1-1v-2h-2v-1 4l1 1 1 1v1h-2v-1h-1v-1h-1v-1h-1v-1h-1v-1 5l2 2q0 3 1 3v1h1v1h1v1h-2v-1h-1v-1h-7v1h-1v-1h-1v-1h-1v-1q0-1-1-1-1 1-2-1l-1-1h2v-5q0-4 2-12t0-8q-1 1 1-2l1-3h1v-1h2v-1h-1v-1h-2l-2 1q-1 1-4 1h-5 1v-1h1v-1h1l1-1 1-1h2l4-4q5-2 6-3l1-1h1v-5h-1v-1h-1l-1-1q-1 0-1-1t-2-1q-1-1-6-3-4-2-4-4t-1-2-1-2v-3h1v-1h1v-2h-1v1h-1v1h-1v1h-1v1q0 1-1 2l-1 1v1l-1 2-1 1v-6l1-2q1-2 1-3v-1l1-1 1-1v-1h-2v1h-1v1h-1q-1 0-2 2l-2 1v1h-1v1h-1v1-5h1v-1h1v-1h-1v-1h-1v1h-1v1h-2v1h-1v-2h1v-1h1v-1h1v-1h1l6-4q5-2 16-2 10 0 15 3l5 3 2 1q1 0 1-3 1-2 1-3v-1h1v1h1v1q2 2 2 3v1h2v1-9h1v1h1v2q1 1 1 2h1v1l1-4q1-3 1-6v-3h1v1h1l1 2q1 2 1 3v1h2v-1l3-4q3-4 3 3 0 8 4 8 5 0 6 2t11 2q10 2 17 6 8 4 11 9 4 5 10 7 6 4 10 0 5-4 5-5t5-3q5-3 7-5 2-1 4-1t2 3q1 3 4 2 2-1 4-1zm-56 8v-2l-1-1q-1-2-5-5-5-4 1 0 6 2 8 5 2 2 1 3v2q1 2-2 2h-6q-4-1-6-6t4-1q6 5 6 3zm-27 31v-1h-1l-1-3q-2-3 1-3h4q1 2 4 1 3 0 3 1t-1 1-4 3l-3 3q-1 0-1-1t-1-1zm-8 26-1 1h-1v-1h-1v-6q-1-5 0-5t3 2q1 3 1 6 0 2-1 3zm13-5q0-5 2-4 2 0 1 1t1 1q2 1-1 4-3 2-3-2z" fill="#115b36" fill-rule="evenodd" stroke="#115b36"/>
 <path d="m432 317h2l9 1q9 2 12 2t3 1v1h-5q-5 0-7-1t-10-2l-7-1 3-1z" fill="#67c3f4" fill-rule="evenodd" stroke="#67c3f4"/>
 <path d="m915 417 2 2 1 1q0 2 1 3l1 1v2l1 1 1 1v-1l6-3q5-4 6-4h1l1-1 2-1h2v-1 3h-1v1h-1v1q0 1-3 4l-2 4h2v1l-1 1 4 1 4 1h5l1 1h2l1 1q1 2 2 1 1 0 1 1v1h1v1h1v1h1v3l1 4v2l4 4q4 4 5 4v1h1v1l1 1v1h2v1h1v2h-1l-1-1h-2l-2-1-1-1h-3q-2-1-2 0 0 2-4 0-5-3-5-1 0 1 4 7 5 6 7 13t0 5q-2-1-3-2-1 0-1 11t-3 17-3 7v1q-1 0-2 1 0 1 1-5 1-5 0-4-1 2-4 3t-1-2 0-3 0-3 0-1-5 1q-2-1-2-3 1-1-7-12-8-12-10-12-1 0-1 11l-1 12v-2l-1-1-1-2v-3l-1-1q-1-2-1-4v-1l-1-1-1-1v-4h-1v1h-1v3l-1 1-1 3q-2 3-2 4v1l-1 1q-1 1-1 2v2q0 1-1 2l-1 1v2l-1 2-1 1v2-30 2l-1 1q-1 2-1 4v1l-1 1-1 2v-18h-2v4l-1 1-1 1-1-3-1-2h-2v2q0 2 1 3v2h-1q-1 0-2-1v-1h-1v-1h-1v-1 3l2 3q2 2 2 4v2l-1 1-1 1v1l-1 1-1 2v-1l-2-1q-1-2-1 1-1 3-2 1l-1-2h-1v-1h-1v3q0 2 1 4l1 2v2h1l-1 1h-1v-1l-1-1v-1l-2-2v-2l-1-1-1-1v1l-1 2-1 2v4q0 4 1 7l1 3v3h-1v-1h-1v-4l-1-3q-1-2 0-13t3-18l4-7v-2h-1v-1h1v-6 1h-1v1h-1v1h-2v1h-1q0 1-5 4l-4 3v1l-1-1-1-2v-2h-3l-2 1h-2v-1l1-1v-2l4-6q4-6 6-7l2-1v-1h1l1-1 1-1h1l1-1 1-1h-11l-1 1h-1v-2h1q1 0 2-1 0-2 1-3v-1h-3q-2 0-10-2l-7-2h-2l-1-1h-2v-2h2l1-1h2l1-1 1-1 11-2q12-4 20-3 7 1 8 1h2l4 3q4 3 5 4l1 1h1v1h1v1h1l2 1h2v-1l-1-1v-1l-1-1-1-1v-2h-2l-1-1q-1-1-4-2t-1-2q2 0 1-1l-1-2h-1q-1 0-3-1l-2-1h-3l-1-1-2-1h2l4-1 4-1 5 2q5 1 8 4 3 2 3 3h1v1h1v1h1v1h1v1h1v1h1v-2l-1-4q-1-4-1-8-1-3 0-3 1 1 3 2zm36 27q3 2-2 2-6-1-6-2t3-1q2-1 5 1z" fill="#145c37" fill-rule="evenodd" stroke="#145c37"/>
 <path d="m934 585h1v1h2v1h1v2l1 1v1h2v1l1 1v1h1v1h1l3 1q4 0 5-1 0-1 3-2t5-3q3-1 4 2 0 2 1-1t4-1q3 1 3 2t4 3q4 1 7 1t4-2q1-3 5-3 3 0 3-2v-2l2 7q1 8 3 22 0 13 1 14l-3 1q-2 0-2 3-1 2-5 3t-5 4v4h-1v1h-1q-1 0-2-4-1-3-2-2-2 0-3 3t-5 4q-3 1-4 3v8l1 5v1q-1 1-2 5t-7 5h-5v1h-3v-1q0-1-3-1l-3-1v1h-1v-1h-1v-1l1-2q1-2 1-3l2-1v-4 1h-3v1q-1 0-2 1l-2 2h-1v1h-1v1h-1v-5h1v-1h2l-1-4v-3l1-1v-2q-1-3-1-6 0-4 2-5 0-1-1-5l-1-5h-1v-1h-1v-1h-1v-1h-1l-1-1-1-1h-3v1q-1 0-1 1h-2l-1 2q-1 3-3 4h-1v1h-1v1h-3 1v-5h-1v1h-3v-2l1-1v-1h1q1 0 1-1l1-1h3v-1h1v-1h2l2-1 1-1h1v-1l-1-4q-1-4-2-10l-1-6 2 1q2 0 4-8 1-9 2-9z" fill="#758d0a" fill-rule="evenodd" stroke="#758d0a"/>
 <path d="m776 564 2-3h1q1 0 1 6v5h-1q-1 0-1 2v2l-1-2q0-2-1-2t-2 4v3h-1v-4l1-4v-2q0-2 2-5z" fill="#316649" fill-rule="evenodd" stroke="#316649"/>
 <path d="m873 632h1v-1h1v1h1q1 0 2 1 0 1 1 2 1 0 2 3 1 4 2 6t2 2h1v3h-1v1h1v3h1v-1h1v-1l1-1v-1h2v6h1l1-1h1v-1h2v3q1 2 0 2t-2 3q0 3 3 1t4-2v-1q1 0 1-1v5h-1v1h-1v2l-1 1q0 1-5 1-5 1-6 4 0 3 1 3 1 1-1 1h-1v1h-1v1l1 2 1 1v3h1v1h-3q-4-1-6-1t-8-1l-5-1h-1v-8q0-5-1-6h-3l-2 1v-1q0-1-1-4 0-2-1-2-2 0-2-3 0-2 1-5l1-4h-1v1h-1v1l-2 1v1h-1l-1 1h-1v-1l1-1v-1h1l1-1q1 0 1-1 0-2-1-2h-2v-9h1l1 1 3 1q3 1 3 0t5-1 5-2v-4l2-2h1z" fill="#4d7618" fill-rule="evenodd" stroke="#4d7618"/>
 <path d="m545 583v1q0 2 1 1 2 0 2 3t-1 4h-1v1l-1 1-1 2q0 2-2 2h-1v-2l1-2v-4l-1-1q-1-1-1-3v-2l2 1q2 1 2-1 0-1 1-1z" fill="#81b8c0" fill-rule="evenodd" stroke="#81b8c0"/>
 <path d="m992 672v4q-1 4-3 5-1 1-5 2l-4 1h-1q-1 0-1-2 0-1-1-2l-1-1q0-1-2-2l-1-1h1l1-1q1-1 7-3l6-1q1-1 2 0t2 1z" fill="#326a1d" fill-rule="evenodd" stroke="#326a1d"/>
 <path d="m984 519h2v1q-1 0-1 1l-1 1q-2 0-2 1l-2 2q-1 0-2 2l-2 2q-1 0-2 2 0 3 2 1 3 0 7-1h4v2q1 1-3 2l-3 1v2l3 1q2 1 4 5 2 3 3 5 0 2-2 1-2 0 0 4 1 5 1 7v2-1q-1-2-2-2t-1 1q-1 1-1-1-2-1-3 0-2 2 0 7 3 5 3 9v5h1l1 1h2v-3l1-1 1-2v4q1 5 2 5h1v4q0 2-3 2-4 0-5 3-1 2-4 2t-7-1q-4-2-4-3t-3-2q-3-2-4 1t-1 1q-1-3-4-2-2 2-5 3t-3 2q-1 1-5 1l-3-1h-1v-1h-1v-1l-1-1v-1h-2v-1l-1-1v-2h-1v-1h-2v-2h3q3 0 4-1h1l1-1h1q1 0 3-1 2-2 0-4-1-1 0-2h2v-2l1-2v-2h-1l-1-1h-2v2q-1 1-1 0-1 0-2 1v1h-1v1h-1v-2l-1-1v-1h1v-2l1-1q1-1 2-4 1-2 3-8v-5q0-1-1 0t-1 0-2-1h-2v-4h1l3-3q2-2 3-2v-1h2v-2h-6v-2h2l1-1 1-1 3-1q4-1 4-2l1-2q0-2-1-3h-2v-1h-1v-1h2l5 1q4 1 4-1 0-1 1-2l1-2 1-1h1v11h2l1-1h1l4-5q3-6 5-6t2 2q0 1 1 1zm-6 64-1-3q-1-2-1-4v-12l2 3q1 3 2 5 2 1 0 2v5q1 4 2 4t0 1q-1 2-2 0-2 0-2-1z" fill="#1e6237" fill-rule="evenodd" stroke="#1e6237"/>
 <path d="m821 584v3l1 1h2q2 0 2 1v1h-6l-1-2q-1-2-2-6l-1-5v-5q2-5 2-3 1 3 2 3t1 2 1 1q1 0 0 2-1 1 1 1 3-1 2 0 0 2-2 2-2 1-2 4z" fill="#8abbb6" fill-rule="evenodd" stroke="#8abbb6"/>
 <path d="m622 579v8q1 8-1 8-2-1-3-1h-2l-1-1-3-3-2-3 5-1q5 0 4-2t1-3q1 0 1-1l1-1z" fill="#91c2d5" fill-rule="evenodd" stroke="#91c2d5"/>
 <path d="m759 432v-4h2v1l1 1h4v2h-1v1h-1v1q-2 2-2 4v1h1q1-1 3-1h3v1h-1v1h-1l-2 4-2 6v4h2v-1h1v2l2-1 2-2 2-1h1v1q-1 1-1 4v4h2l2-2q3-2 4-1 2 1 2 2v29q0 28-2 33 0 5-1 6l-1 1h-1l2 1h2v5h-1v1l-1 1-3 2q-2 2-3 6t1 3q1-1 2-1l2 2q2 3 1 8-1 4-1 5l-2 3q-2 3-2 5v2l-1 4v5q0 2-1 2-2 0-4-5t-3-5q-2-1-1 4v4l-2 2q-3 2-4 1 0-1-2-1l-2 1v-1h-1l-1-1v-1h-1l-1-1v-1h-1l-1-1v-1h-1l-1-1q-1-1-2-1l-1-2h-10q-2 0-2-2 0-1-5 0-5 0-6-1 0-1-1-1t-1 1-3 1l-3-1v-1q0-1-2-8l-1-8-1-1v-13q0-14-1-20 0-7 1-7t0-5l-1-5v-6l1-6v7h2q2 0 2-1t2 4q0 5 1 7v2h3v1l1 1 1 2v-2q0-1 1-4v-3h2v1l1 1 1 2q2 1 2 2h1v1h1v1h1v-9q0-2-2-8l-2-6v-2l2 2q1 2 2 2h1v-1h-1v-2h-1v-1q-1 0-1-1v-1h-1v-1h-1v-2l-1-1v-1h2l2 1h2v1h1v1h1l3 3 4 3h1v1h1v1h2v1h1v1h1v1-6l-1-1-1-1v-1l-1-1q-1-1-3-5-2-3-3-3l-1-1h-2v-2l-1-1v-1h2l1 1 2 1h1l1 1q2 1 2-1 0-1 2-1l3 1h4l1 1h1v-2h-1l-1-1h-1v-1h-1v-1h-1l-4-3q-3-2-3-7l-1-4h1v-1h1v-1h-1v-1h-1v-2l1-1 1-1v3h1q1 1 1 2v1h1v1h2v-1h-1v-1q0-2-1-4l-1-1v-2h1v1l1 1q1 2 2 1v-2q-1-2 0-2 2 1 2 2v1h1v1h1v-1l1-1 1-1v-3q0-2-1-2-1-1-1-2v-1h-1v-1h-1v-2l-1-1v-1h2v3h1l1 1h1v1h1v1h1v-3q0-3 1-1l1 2 1-4z" fill="#ebf4f5" fill-rule="evenodd" stroke="#ebf4f5"/>
 <path d="m1013 439-1 1h-1v-1h-1v-6q-1-5 0-5t3 2q1 3 1 6 0 2-1 3z" fill="#b8ded5" fill-rule="evenodd" stroke="#b8ded5"/>
 <path d="m998 668h1v2h3l1 1 1 1h1v-1l1 1q2 0 2 1v1l1 2v1h1l1 1h1v1l1 1h1v1q0 1-1 1t-1-1-2-1h-1v1h-1v5h6v4h-3l-1 1v3h-1l1 1h1v1l-1 1v3h-7q-2 0-3-2 0-2-1-2t-9 2h-9v-1h1l1-1h1v-1h-1v-1h-2v-1h-1v-1l-1-1-1-1v-1h1v-1h1v-4l4-1q4-1 5-2 2-1 3-5v-4l1-2q1-2 2-1 0 1 1 0l2-1z" fill="#567918" fill-rule="evenodd" stroke="#567918"/>
 <path d="m1028 448-2 2-3 1v-1l1-2v-3l1-3q1-2 5-3 3-1 2 1 0 2-3 5-2 3-1 3z" fill="#b3d7ce" fill-rule="evenodd" stroke="#b3d7ce"/>
 <path d="m725 590h3v1h1v1h-1v2q0 1-1 2 0 1-1 1h-2v-5q0-1 1-2z" fill="#79b6bf" fill-rule="evenodd" stroke="#79b6bf"/>
 <path d="m438 586h1v1q-1 1-1 5v3l1 1h-2v3q-1 3 0 4t-1 1q-1 1-1 0t-1-1h-2v-1l-3-6q-2-5-3-5l-2-1h-1v-1h-1v-1h3l1 1 1 1 1-1q1-1 2-1 2 0 2-1 1-1 3-1h3z" fill="#8bbbc2" fill-rule="evenodd" stroke="#8bbbc2"/>
 <path d="m926 656h-2q-1 0-2 2-2 3-4 4h-2v-1q0-1-1-6t0-7l1-1 2-1q1 0 3 2 3 2 3 4 0 1 1 2 1 0 2 1 0 1-1 1z" fill="#907d40" fill-rule="evenodd" stroke="#907d40"/>
 <path d="m430 777h1q0 1 1 1l2 4q2 5 6 10 5 4 12 8 6 3 6 4t2 3 2 7q-1 5-2 5t-3 2q-2 3-11 7t-28 10q-20 6-52 11-33 5-82 11-48 6-104 15t-94 17q-37 8-39 8h-2l-1 1-2 1h-4l264 1 263 1h-565v-123l1-1v-1l1 1q2 0 2-1t210-2 213-1 3 1z" fill="#1794ef" fill-rule="evenodd" stroke="#1794ef"/>
 <path d="m744 589v-1l2 2q2 2 5 3 3 2 2 5 0 4-1 4h-1l-1-1v-1h-2q-1 0-3-1t-2-4-1-3h-1v-1q0-1 1-1 2 0 2-1z" fill="#2f8576" fill-rule="evenodd" stroke="#2f8576"/>
 <path d="m657 638h1v1q0 1 1 1l2 2q0 2-1 2t-1 1h-1l-1 1h-2q-2 0-7-1h-5v-4h1l1-1 6-1 6-1z" fill="#477419" fill-rule="evenodd" stroke="#477419"/>
 <path d="m0 156v-156h1105v238q-1 0-1-30t-12-33q-11-3-12-5 0-2 1-8 1-7 0-10-1-4-5-6-5-2-16-4t-13-10-3-8-12-1-31 5-27 7-11-2q-5-3-6-7-1-5 1-10 2-4 7-10 5-7 5-8v-2h1v-1h1v-1l1-1v-1h-3v1h-1v-1h-10q-5 2-17 6t-19 2h-15q-7 0-12 2t-30 8q-24 8-40 15-15 8-15 9t-1 1l-1 1h-1v6h-1v1h1v1h3v1h1v1h12q12 0 17 1t9 3q5 2 6 3 0 1 1 5t-1 6q0 2-6 8-6 5-13 9-7 5-14 5t-8-2-2-1q-2 1-7 7-6 7-9 8h-4q-1 0-5-4t-8-14-8-15-9-8-11-1q-6 0-16 8-11 6-21 13t-11 9 0 2q2 1-9 21l-11 20v4h1v1l14 3q14 3 15 4l2 1h1v1h1v1l1 1 1 1v4l-1 1-1 1v1h-1q0 1-5 3l-6 4h-2v1h-1v1h-1v1h-1v1h4l18 4q18 2 21 4 2 0 4 1l1 1h1v1l1 1 1 1v5l-1 1-1 1v1h-1v1h-1l-1 1q-1 1-3 1-1 2-15 2t-23-1q-8-1-20-3-12 0-22 2-10 4-18 4-9 0-12 2-2 2-14 9-11 7-24 9l-14 3h-2q-1-1-8-1-6 0-6-1 1-1-42-1-42 0-66 1l-25 1-1 1-1 1h-85q-73 0-77 1-3 1-8 2l-5 1v1q-1-1-2-1-2-2-10-6t-15-6-21-2-21 1-17 6l-9 5h-3q-3 0-6-2-4 0-73-1t-74-2l-5-1v-156z" fill="#34afed" fill-rule="evenodd" stroke="#34afed"/>
 <path d="m738 461-2-1h-2q-1 0-5-1t-3-1h1l5-2q5-2 6 2 1 3 0 3z" fill="#c2ded6" fill-rule="evenodd" stroke="#c2ded6"/>
 <path d="m787 452h1v-1h1v15q-1 15-1 30v14h1l1 1 2 1h-3v1l1 1 1 2q1 2 1 4 0 1-2 2-2 0-2 2v1l-1 1h-1q0 1-1 3l-1 2v1l-1 1-1 1-1 1h-1v-2l1-2v-2h-2l-2-1h1l1-1q1-1 1-6 2-5 2-33v-28h2v-1l1-3q1-3 2-4z" fill="#a38866" fill-rule="evenodd" stroke="#a38866"/>
 <path d="m731 646h4q3 1 3 4v3l-2 1q-2 1-2 4v2h1v1h1v1h-9l-4 1v-1h-1v-2h-4l1-3 1-2h1l1-1h3q3-1 4-4 1-4 2-4z" fill="#728023" fill-rule="evenodd" stroke="#728023"/>
 <path d="m279 350-6-11 5 4q5 3 10 3t75-1 73-3 4-2v8l3 3q3 3 10 6t8 4l1 1h1v1h1v1h1v1h-1v2h-1v1h-1l-1 1-1 1h-1q-1 0-16 5-15 4-15 6-1 3-14 3t-16-2q-4-2-10-3-7-1-17 4t-19 5q-10 0-36 2l-25 2v-1q-1-1-3-15-4-14-9-26z" fill="#95d4f8" fill-rule="evenodd" stroke="#95d4f8"/>
 <path d="m456 566h2v1h1v1h2l1 1v1h1-5v1h-1v1h-9l-5 1-5 1h-2l-1 1-1 1h-2l-1 1-1 1h-4q-3 0-3 1t-1 1h-1l-1-1h-1q-1 0-1 1v3q0 1-2 3t-18 3-19 1q-3 2-21 2h-19v1h1v1h2l2 1q1 1 2 1h1v2h2l-3 1-2 1h-40q-21 0-28-2l-14-4q-8 0-16 3t-26 4q-17 1-26-3-8-4-16-5t-18 2-42 4-32 2-7 1-14-1-17-1q-9 1-9 4 0 2-19 2h-20v-41l1-1h1v-1l1 1v1h2v-2l3-1q2-2 11-10t15-8q5 0 36 12 32 12 41 12t21-8q11-6 26-10 14-4 20-4 5 0 10 3 4 3 12 3 7 0 18-2 12-2 22-1 11 1 23 5 12 6 17 5 4-1 9-7t8-11 7-7 10 0 11 12q6 10 11 18 4 6 7 8t10 0q7 0 22-8t23-14q8-8 11-8 3-2 10-1t12 4 13 11l9 9q1 1 3 1z" fill="#d6e9f3" fill-rule="evenodd" stroke="#d6e9f3"/>
 <path d="m824 396v-1l1 3 1 3v1h-1q-1 0-5-1h-4v-2l1-2 1-2q2 0 1-1 0-1-1-1t-1-1 2 0q1 2 3 4t2 0z" fill="#a0cec8" fill-rule="evenodd" stroke="#a0cec8"/>
 <path d="m874 538h5-4v1h1v2q0 1 2 2 1 0 0 3 0 4-1 6l-2 2q-1 0-2 1v1h-2v1h-1q0 1-2 1-2 2-2 0 0-1 3-5t4-4 1-1-1-1-1-1q-1-2-4 1-4 2-5 4l-1 2v1h-4v-8h-1v1h-1v1q0 1-1 2 0 2-5 1l-4-1v1q0 1 1 1 1 1 1 3 0 1-2 2-1 1-2 1h-1l-1 1-1 1h-2v-1h-1v-1q0-1-1-2-1-2-3-3l-3-1v-1l-1-1v1h-1v-1h-1v-1l-1-1-1-1v-1h2v1h1v1h1l3 1 3 1q1 0 1 1h1v1h2l1 1h1v-3l-1-1q-1-1-1-2v-1l-1-1v-1h2v2q0 1 5 0 4 0 6-1 1-1 1-2t5-2q6-1 8-3h8z" fill="#c2dddf" fill-rule="evenodd" stroke="#c2dddf"/>
 <path d="m775 540 4-4h1q1 0 0 5-2 5-3 5h-1q-1 0-2 1-2 1-2-2 0-2 3-5z" fill="#3b6a4c" fill-rule="evenodd" stroke="#3b6a4c"/>
 <path d="m462 581v-1h5l11 1q10 1 12 1h5v1h-1q-1 0-1 1t-1 1-2 3v7h-1v1h-2v1l-1 1h-1q-1 0-3-1-1-1 0 1 0 2-3 2h-5q-2 0-5 1l-3 1-1-1q0-1-1-1h-4v-2l1-3v-3q1-1 2 0 1 2 2-3 0-5-3-6l-3-1h2l1-1zm14 11h-2v-2q0-3-1-4t5-1 5 4-2 5q-2 0-3-1 0-1-2-1z" fill="#93c1cd" fill-rule="evenodd" stroke="#93c1cd"/>
 <path d="m829 562 1-2v1l2 3q0 3 1 0 1-2 2-1 1 2 2 2l-1 4q0 3 3 4 3 0 2 5t-3 9l-2 4v1h-1v1h-1v2h-2q-2 0-2-1v-10q0-7-2-12l-2-4v-1l-1-1v-2h3v-1l1-1z" fill="#a2cdcf" fill-rule="evenodd" stroke="#a2cdcf"/>
 <path d="m1021 413v-1h-1l-1-3q-2-3 1-3h4q1 2 4 1 3 0 3 1t-1 1-4 3l-3 3q-1 0-1-1t-1-1z" fill="#b1dad5" fill-rule="evenodd" stroke="#b1dad5"/>
 <path d="m878 627 3-1h3l2 1 3 1h2v1h1v1l1 1v1h-2l-1 2q0 1-2 2-2 2-2 6v4h-1q-1 0-2-2t-2-6q-1-3-2-3-1-1-1-2-1-1-2-1h-1v-1h-1v1h-2v-3l2-1q1 0 4-1z" fill="#437215" fill-rule="evenodd" stroke="#437215"/>
 <path d="m571 619-2-14h1v1h13l1 8q0 8-1 8t-1 6-1 7v1q-1 0-1 2-1 1-5 0l-4-2h2v-2q-1-1-2-15z" fill="#7f910f" fill-rule="evenodd" stroke="#7f910f"/>
 <path d="m914 410h1v-1h1v1l1 1v1h-1q-2 0-1 2l2 4v1l-2-2q-2-1-3-2-1 0 0 3 0 4 1 8l1 4v2h-1v-1h-1v-1h-1v-1h-1v-1h-1v-1h-1q0-1-3-3-3-3-8-4l-5-2-4 1-4 1h-2l2 1 1 1h3l2 1q2 1 3 1h1q0 1-3 2l-3 2h-2q-1 0-8-1-8-1-20 3l-11 2-1 1-1 1h-2l-1 1h-2v2h2l1 1h2l7 2q8 2 10 2h3v1q-1 1-1 3-1 1-2 1h-1v2h1l1-1h11l-1 1-1 1h-1l-1 1-1 1h-1v1l-2 1q-2 1-6 7l-4 6v2l-1 1v1h2l2-1h3v2l1 2 1 1v-1l4-3q5-3 5-4h1v-1h2v-1h1v-1h1v-1 6h-1v1h1v2l-4 7q-2 7-3 18t0 13l1 3v1-13l1-2 1-2v-1l1 1 1 1v2l2 2v1l1 1v1h1l1-1h-1v-2l-1-2q-1-2-1-4v-3h1v1h1l1 2q1 2 2-1 0-3 1-1l2 1v1l1-2 1-1v-1l1-1 1-1v-2q0-2-2-4l-2-3v-3 1h1v1h1v1q1 1 2 1h1v-2q-1-1-1-3v-2h2l1 2 1 3 1-1 1-1v-4h2v18l1-2 1-1v-1q0-2 1-4l1-1v-2 30-2l1-1 1-2v-2l1-1q1-1 1-2v-1l1 30q1 29 0 29l-1 1q-1 0-4 5-4 5-6 5-1 0-1-4t-1-4-2 3q-1 2-6 1-4-1-4-2t-2 0-6 0q-4 0 0-2l3-2h1l-1-1q-1-1-3-1l-3-1v-1h2v-1q1-1 2-1l2-2q1-2 1-6 1-3 0-3-2-1-2-2v-2h-1v-1h4-13q-2 2-8 3-5 1-5 2t-1 2q-2 1-6 1-5 1-6 0v-2h-1q-1-1-4-6-3-4-7-5l-4-1-1 1h-1v-2h1v-1h2l1-1q2-1 5-1h3l2-1 2-1h-1v-1h-1v-1h-3l-1-1-1-1h-3q-4 0-6 2h-2l-1 1-1 1h-3 1v-4l1-1 1-1h1v-1h1l3-3q3-2 3-4 0-1 1-1l1-1h1l1-1 1-1h1v-2h-5v-4h-3l-1 1-1 1-5 6-5 6v1h-1v1h-3v1h-1v-1h-1v-13h-2v2l-1 1q-1 1-1 4 0 2-2 2h-2l-2-1-1-1h-3l-2-1-1-1h-1v-14q0-15 1-30v-16l1-2v1h1v1h1l1-1q1-1 1 1 2 2 2 3v1h1v-1h1v-2q1-3 2-3t1-2q0-1 1-2v-2q-1-1 2-1 4-1 5-1t5-1h5v1l1 1v3q0 2 2 0 1 0 1-1h1v3h-1l-2 1q-2 1-2 5l-1 3v1l2 1q1 1 4 1 2 0 1 2t1 1q2 0 2 1t-1 1l-1 1-1 1-1 1h2q2-1 3-2l1-1v3l-1 2-1 1v1h-1v1h-1v2h1v-1h1v-1h1v-1h1v-2h1v-1h1v-2l1-1q1-2 1-4 0-1 1-6 1-6-3-14-2-7-6-11t-12-7l-8-3h-1v-1h-1v-1h-1v-1h-1v-1h-1v-1h2v1h1v1l2-1q2 0 1-1l-1-1v-1l2 1q2 1 2 2v1h3v-2q-1-1-1-2v-1l-1-1v-1h2l1 2 1 3h1v1l1-3 1-4v1l1 4q0 4 1 4l1 1h2l1 1h2v-3q0-2 2 0 0 1 1-2l1-2 1 1q1 1 1 3v1l1 1 1 2v-3q0-3-1-5v-1h1l1 1h1v1l2 1 2 2v1h1v1h1v1h1v1h1v-2l-1-1-1-1v-1q0-1-2-2v-1l-1-1v-2l1-1v1h1v1h6q6 0 7-2h15q13 1 13 2 1 0 8 1t8 0q0-1 6 0 5 1 6 0 2-1 4-1zm-96 50v-1 1zm55 58v-1q1 0 1 1h-1z" fill="#e9f4f5" fill-rule="evenodd" stroke="#e9f4f5"/>
 <path d="m1018 651 1-3h3q2 0 1 2l-1 2v1l-1 1v2h2v-1h1v-1l2-2q2-2 5-2h3v3-1h-2q-1 1-1 2-1 1-1 2v1h1v1h1q2 1 3 2 1 0 2 2t3 2q1 0 1 1h1v1h-3v1h-1v3q0 3-2 3l-2 2q0 1-4 1-5-1-5 0t-2 2q-1 0-5 2l-4 1h-1v-1l-1-1v-1h-1l-1-1h-1v-1l-1-2v-1q0-1-2-1l-1-1v-1l1-1v-1l1-1q0-1 1-1t4-6 4-6 2-3z" fill="#376c1c" fill-rule="evenodd" stroke="#376c1c"/>
 <path d="m421 621-31-7 27 2q27 2 41 5 13 3 14 3h2l2 1q3 1 6 1h2l2 1 2 1h5v1h-5q-6 1-16 1h-13l-3-1h-2q-2-1-33-8z" fill="#c7bc6a" fill-rule="evenodd" stroke="#c7bc6a"/>
 <path d="m1097 552v-1l2 1q2 0 2 1l-1 1q-1 0-2 2-1 3-2 3l-2-1h-2v-1h-1q0-1-1-1-2 0-2-1t1-1l1-1 3-1h4z" fill="#d3e4d7" fill-rule="evenodd" stroke="#d3e4d7"/>
 <path d="m727 590h-2q-1 1-1 2v5l-1-1h-3v-2l-1-2q-1-3-1-4l-2-4-2-5v-2l2-1q2 0 2 1 1 1 3-1 2 0 1 2 0 2 1 2 1 1 3 4v4q0 1 1 2z" fill="#3a95a7" fill-rule="evenodd" stroke="#3a95a7"/>
</svg>
