<?xml version="1.0" encoding="UTF-8"?>
<svg viewBox="0 0 1052.3622 744.09448" xmlns="http://www.w3.org/2000/svg" xmlns:xlink="http://www.w3.org/1999/xlink">
 <defs>
  <filter id="a">
   <feGaussianBlur stdDeviation=".275"/>
  </filter>
  <filter id="c"/>
  <filter id="bx" x="-.18756" y="-.01784" width="1.3751" height="1.0357">
   <feGaussianBlur stdDeviation=".4448"/>
  </filter>
  <filter id="bv" x="-.01416" y="-.13451" width="1.0283" height="1.269">
   <feGaussianBlur stdDeviation=".3039"/>
  </filter>
  <filter id="g" x="-.36931" y="-.00866" width="1.7386" height="1.0173">
   <feGaussianBlur stdDeviation=".216"/>
  </filter>
  <filter id="i" x="-.00182" y="-.15678" width="1.0036" height="1.3136">
   <feGaussianBlur stdDeviation=".6533"/>
  </filter>
  <filter id="bu" x="-.2684" y="-.02626" width="1.5368" height="1.0525">
   <feGaussianBlur stdDeviation=".6546"/>
  </filter>
  <filter id="bt" x="-.1342" y="-.01313" width="1.2684" height="1.0263">
   <feGaussianBlur stdDeviation=".3273"/>
  </filter>
  <filter id="bs" x="-.00584" y="-.19936" width="1.0117" height="1.3987">
   <feGaussianBlur stdDeviation="2.4089"/>
  </filter>
  <filter id="br" x="-.0177" y="-.60384" width="1.0354" height="2.2077">
   <feGaussianBlur stdDeviation="7.2964"/>
  </filter>
  <filter id="b" x="-.1831" y="-.0062" width="1.3662" height="1.0124"/>
  <filter id="bw" x="-.00611" y="-.34073" width="1.0122" height="1.6814"/>
  <linearGradient id="k">
   <stop stop-color="#fff" offset="0"/>
   <stop stop-color="#fff" stop-opacity=".5" offset="1"/>
  </linearGradient>
  <linearGradient id="l">
   <stop stop-color="#fff" offset="0"/>
   <stop stop-color="#fff" stop-opacity="0" offset="1"/>
  </linearGradient>
  <linearGradient id="m">
   <stop stop-color="#fff" stop-opacity=".5" offset="0"/>
   <stop stop-color="#fff" stop-opacity=".25" offset="1"/>
  </linearGradient>
  <linearGradient id="d">
   <stop stop-color="#fff" stop-opacity="0" offset="0"/>
   <stop stop-color="#fff" stop-opacity=".3569" offset=".2704"/>
   <stop stop-color="#fff" stop-opacity=".5" offset="1"/>
  </linearGradient>
  <linearGradient id="f">
   <stop stop-opacity="0" offset="0"/>
   <stop offset=".5042"/>
   <stop stop-opacity="0" offset="1"/>
  </linearGradient>
  <linearGradient id="p" x2="0" y1="-749.92" y2="-769.39" gradientUnits="userSpaceOnUse">
   <stop stop-color="#fff" stop-opacity="0" offset="0"/>
   <stop stop-color="#fff" stop-opacity=".1608" offset=".1251"/>
   <stop stop-color="#fff" stop-opacity=".25" offset=".4517"/>
   <stop stop-color="#fff" stop-opacity=".2588" offset=".7541"/>
   <stop stop-color="#fff" stop-opacity=".15" offset=".9198"/>
   <stop stop-color="#fff" stop-opacity="0" offset="1"/>
  </linearGradient>
  <linearGradient id="o" x2="0" y1="795.94" y2="767.44" gradientUnits="userSpaceOnUse">
   <stop stop-color="#fff" stop-opacity="0" offset="0"/>
   <stop stop-color="#fff" stop-opacity=".1" offset="1"/>
  </linearGradient>
  <linearGradient id="n" x2="0" y1="797.37" y2="735.06" gradientUnits="userSpaceOnUse">
   <stop stop-color="#040e1d" offset="0"/>
   <stop stop-color="#051327" offset="1"/>
  </linearGradient>
  <linearGradient id="bh" x2="0" y1="756.04" y2="735.88" gradientUnits="userSpaceOnUse">
   <stop stop-color="#b7860d" stop-opacity="0" offset="0"/>
   <stop stop-color="#bd8e19" stop-opacity=".349" offset=".1083"/>
   <stop stop-color="#ebc870" offset=".382"/>
   <stop stop-color="#fff" stop-opacity=".05" offset=".7736"/>
   <stop stop-color="#413007" offset="1"/>
  </linearGradient>
  <linearGradient id="e" x2="0" y1="796.42" y2="767.89" gradientUnits="userSpaceOnUse">
   <stop stop-color="#e3b237" offset="0"/>
   <stop stop-color="#e2af31" stop-opacity=".5" offset=".5152"/>
   <stop stop-color="#e9c260" offset=".5455"/>
   <stop stop-color="#f2dba3" offset="1"/>
  </linearGradient>
  <linearGradient id="be" x2="0" y1="754.33" y2="735.93" gradientUnits="userSpaceOnUse">
   <stop stop-color="#b7860d" stop-opacity="0" offset="0"/>
   <stop stop-color="#bd8e19" stop-opacity=".349" offset=".118"/>
   <stop stop-color="#ebc870" offset=".4593"/>
   <stop stop-color="#fff" stop-opacity=".05" offset=".7736"/>
   <stop stop-color="#413007" offset="1"/>
  </linearGradient>
  <linearGradient id="bc" x2="0" y1="752.83" y2="735.97" gradientUnits="userSpaceOnUse">
   <stop stop-color="#b7860d" stop-opacity="0" offset="0"/>
   <stop stop-color="#bd8e19" stop-opacity=".349" offset=".1288"/>
   <stop stop-color="#ebc870" offset=".6103"/>
   <stop stop-color="#fff" stop-opacity=".05" offset=".7736"/>
   <stop stop-color="#413007" offset="1"/>
  </linearGradient>
  <linearGradient id="ba" x2="0" y1="752.7" y2="735.97" gradientUnits="userSpaceOnUse">
   <stop stop-color="#b7860d" stop-opacity="0" offset="0"/>
   <stop stop-color="#bd8e19" stop-opacity=".349" offset=".146"/>
   <stop stop-color="#ebc870" offset=".6389"/>
   <stop stop-color="#fff" stop-opacity=".05" offset=".7341"/>
   <stop stop-color="#413007" offset="1"/>
  </linearGradient>
  <linearGradient id="ax" x2="0" y1="752.21" y2="735.98" gradientUnits="userSpaceOnUse">
   <stop stop-color="#b7860d" stop-opacity="0" offset="0"/>
   <stop stop-color="#bd8e19" stop-opacity=".349" offset=".145"/>
   <stop stop-color="#ebc870" offset=".382"/>
   <stop stop-color="#fff" stop-opacity=".05" offset=".7736"/>
   <stop stop-color="#413007" offset="1"/>
  </linearGradient>
  <linearGradient id="av" x2="0" y1="751.61" y2="736" gradientUnits="userSpaceOnUse">
   <stop stop-color="#b7860d" stop-opacity="0" offset="0"/>
   <stop stop-color="#bd8e19" stop-opacity=".349" offset=".156"/>
   <stop stop-color="#ebc870" offset=".382"/>
   <stop stop-color="#fff" stop-opacity=".05" offset=".7736"/>
   <stop stop-color="#413007" offset="1"/>
  </linearGradient>
  <linearGradient id="at" x2="0" y1="753.41" y2="735.95" gradientUnits="userSpaceOnUse">
   <stop stop-color="#b7860d" stop-opacity="0" offset="0"/>
   <stop stop-color="#bd8e19" stop-opacity=".349" offset=".1244"/>
   <stop stop-color="#ebc870" offset=".382"/>
   <stop stop-color="#fff" stop-opacity=".05" offset=".7736"/>
   <stop stop-color="#413007" offset="1"/>
  </linearGradient>
  <linearGradient id="ar" x2="0" y1="749.05" y2="736.07" gradientUnits="userSpaceOnUse">
   <stop stop-color="#b7860d" stop-opacity="0" offset="0"/>
   <stop stop-color="#bd8e19" stop-opacity=".349" offset=".1259"/>
   <stop stop-color="#ebc870" offset=".382"/>
   <stop stop-color="#fff" stop-opacity=".05" offset=".7736"/>
   <stop stop-color="#413007" offset="1"/>
  </linearGradient>
  <linearGradient id="ap" x2="0" y1="748.14" y2="736.09" gradientUnits="userSpaceOnUse">
   <stop stop-color="#b7860d" stop-opacity="0" offset="0"/>
   <stop stop-color="#bd8e19" stop-opacity=".349" offset=".159"/>
   <stop stop-color="#ebc870" offset=".382"/>
   <stop stop-color="#fff" stop-opacity=".05" offset=".7736"/>
   <stop stop-color="#413007" offset="1"/>
  </linearGradient>
  <linearGradient id="an" x1="770.54" x2="768.81" y1="759.24" y2="780.43" gradientUnits="userSpaceOnUse">
   <stop stop-color="#7a5704" offset="0"/>
   <stop stop-color="#e0c06f" offset="1"/>
  </linearGradient>
  <linearGradient id="al" x2="0" y1="773.51" y2="764.43" gradientUnits="userSpaceOnUse">
   <stop stop-color="#bc922d" offset="0"/>
   <stop stop-color="#ecd08a" offset="1"/>
  </linearGradient>
  <linearGradient id="h" x2="0" y1="792.64" y2="776.86" gradientUnits="userSpaceOnUse">
   <stop stop-color="#f9cf69" offset="0"/>
   <stop stop-color="#72540c" offset="1"/>
  </linearGradient>
  <linearGradient id="bq" x2="0" y1="371.47" y2="333.96" gradientUnits="userSpaceOnUse">
   <stop stop-opacity=".75" offset="0"/>
   <stop stop-opacity=".4667" offset=".2843"/>
   <stop stop-opacity="0" offset="1"/>
  </linearGradient>
  <linearGradient id="bp" x2="0" y1="344.04" y2="334.49" gradientUnits="userSpaceOnUse">
   <stop stop-color="#fff" stop-opacity=".5" offset="0"/>
   <stop stop-color="#fff" stop-opacity=".25" offset=".1574"/>
   <stop stop-color="#fff" stop-opacity=".25" offset=".6736"/>
   <stop stop-color="#3f3f3f" stop-opacity=".251" offset=".7921"/>
   <stop stop-opacity=".5" offset="1"/>
  </linearGradient>
  <linearGradient id="bo" x2="0" y1="354.35" y2="323.94" gradientUnits="userSpaceOnUse">
   <stop stop-color="#ebad15" offset="0"/>
   <stop stop-color="#6d500a" offset=".4153"/>
   <stop stop-color="#fcf3dd" offset=".5093"/>
   <stop stop-color="#f4d27f" offset="1"/>
  </linearGradient>
  <linearGradient id="bn" x2="0" y1="-334.63" y2="-340.37" gradientUnits="userSpaceOnUse">
   <stop stop-color="#806600" stop-opacity="0" offset="0"/>
   <stop stop-color="#8a6104" offset=".5042"/>
   <stop stop-color="#806600" stop-opacity="0" offset="1"/>
  </linearGradient>
  <linearGradient id="r" x2="0" y1="361.3" y2="316.06" gradientUnits="userSpaceOnUse">
   <stop stop-color="#1a1a1a" offset="0"/>
   <stop stop-color="#4d4d4d" offset=".062"/>
   <stop stop-color="#1a1a1a" offset=".1479"/>
   <stop stop-color="#333" offset="1"/>
  </linearGradient>
  <linearGradient id="bk" x2="0" y1="-764.36" y2="-777.7" gradientTransform="matrix(.23543 -.03647 -.18352 -1.1846 -33.833 -558)" gradientUnits="userSpaceOnUse">
   <stop stop-color="#b7860d" stop-opacity="0" offset="0"/>
   <stop stop-color="#e7d7b0" stop-opacity=".0314" offset=".2885"/>
   <stop stop-color="#8f6d0b" stop-opacity=".25" offset=".4354"/>
   <stop stop-color="#d09a17" offset="1"/>
  </linearGradient>
  <linearGradient id="bj" x2="0" y1="-764.36" y2="-777.7" gradientTransform="matrix(.23543 .03647 -.18352 1.1846 -33.833 1236.5)" gradientUnits="userSpaceOnUse">
   <stop stop-color="#b7860d" stop-opacity="0" offset="0"/>
   <stop stop-color="#e7d7b0" stop-opacity=".0314" offset=".5364"/>
   <stop stop-color="#8f6d0b" stop-opacity=".25" offset=".6736"/>
   <stop stop-color="#d09a17" offset="1"/>
  </linearGradient>
  <linearGradient id="bi" x2="0" y1="363.83" y2="314.54" gradientUnits="userSpaceOnUse">
   <stop stop-color="#ad8514" offset="0"/>
   <stop stop-color="#f3dd9b" offset=".3684"/>
   <stop stop-color="#fbf5e2" offset=".6929"/>
   <stop stop-color="#f2d88e" offset="1"/>
  </linearGradient>
  <linearGradient id="q" x2="0" y1="-766.18" y2="-768.97" gradientUnits="userSpaceOnUse" xlink:href="#f"/>
  <linearGradient id="bg" x2="0" y1="-754.24" y2="-769.28" gradientUnits="userSpaceOnUse" xlink:href="#d"/>
  <linearGradient id="bf" x2="0" y1="-753.91" y2="-769.29" gradientUnits="userSpaceOnUse" xlink:href="#d"/>
  <linearGradient id="bd" x2="0" y1="-752.4" y2="-769.32" gradientUnits="userSpaceOnUse" xlink:href="#d"/>
  <linearGradient id="bb" x2="0" y1="-751.82" y2="-769.34" gradientUnits="userSpaceOnUse" xlink:href="#d"/>
  <linearGradient id="az" x2="0" y1="-779.58" y2="-785.09" gradientUnits="userSpaceOnUse" xlink:href="#f"/>
  <linearGradient id="ay" x2="0" y1="-750.14" y2="-769.38" gradientUnits="userSpaceOnUse" xlink:href="#d"/>
  <linearGradient id="aw" x2="0" y1="-749.28" y2="-769.41" gradientUnits="userSpaceOnUse" xlink:href="#d"/>
  <linearGradient id="au" x2="0" y1="-750.66" y2="-768.55" gradientUnits="userSpaceOnUse" xlink:href="#d"/>
  <linearGradient id="as" x2="0" y1="-744.6" y2="-768.7" gradientUnits="userSpaceOnUse" xlink:href="#d"/>
  <linearGradient id="aq" x2="0" y1="-747.67" y2="-769.45" gradientUnits="userSpaceOnUse" xlink:href="#d"/>
  <linearGradient id="ao" x1="-125.57" x2="-163.42" gradientUnits="userSpaceOnUse" xlink:href="#l"/>
  <linearGradient id="am" x2="0" y1="759.57" y2="778.34" gradientUnits="userSpaceOnUse" xlink:href="#m"/>
  <linearGradient id="ak" x2="0" y1="759.79" y2="778.42" gradientUnits="userSpaceOnUse" xlink:href="#m"/>
  <linearGradient id="aj" x2="0" y1="733.62" y2="775.62" gradientUnits="userSpaceOnUse" xlink:href="#l"/>
  <linearGradient id="ai" x2="0" y1="893.27" y2="841.38" gradientUnits="userSpaceOnUse" xlink:href="#k"/>
  <linearGradient id="ah" x2="0" y1="913.15" y2="849.14" gradientUnits="userSpaceOnUse" xlink:href="#k"/>
  <linearGradient id="t" x2="0" y1="-350.76" y2="-357.81" gradientUnits="userSpaceOnUse" xlink:href="#f"/>
  <linearGradient id="s" x2="0" y1="-336.63" y2="-342.51" gradientUnits="userSpaceOnUse" xlink:href="#f"/>
  <linearGradient id="bm" x2="0" y1="337.62" y2="341.72" gradientUnits="userSpaceOnUse" xlink:href="#f"/>
  <linearGradient id="bl" x2="0" y1="350.76" y2="357.81" gradientUnits="userSpaceOnUse" xlink:href="#f"/>
  <mask id="ag">
   <path d="m121 736.36h377v61h-377c-0.68397-1.1745-2.2205-15.201-2.2371-29.581-0.017-14.761 1.5046-29.889 2.2371-31.419z" fill="#fff"/>
  </mask>
  <mask id="af">
   <path d="m36 736.36h377v61h-377c-2.0942-1.9044-4.3877-10.615-4.3672-30.343s2.3547-29.16 4.3672-30.657z" fill="#fff"/>
  </mask>
  <mask id="j">
   <path d="m36 736.36h377v61h-377c-3.8011-2.4734-6.9481-10.9-6.9276-30.627s3.2082-28.307 6.9276-30.373z" fill="#fff"/>
  </mask>
  <mask id="ae">
   <path d="m36 736.36h12.09c2.3489-0.79265 9.8745 2.4293 17.306 6.4162l-0.24865 48.495c-4.0685 1.3605-13.164 6.6383-16.984 6.0884h-12.163c-3.8011-2.4734-7.6171-10.9-7.5966-30.627s3.8771-28.307 7.5966-30.373z" fill="#fff"/>
  </mask>
  <mask id="ad">
   <path d="m118.33 733.15h-15.491v67.421h15.491c0.55654-2.1049 2.2362-11.732 2.2308-33.537s-1.6959-32.23-2.2308-33.884z" fill="#fff"/>
  </mask>
  <mask id="ac">
   <path d="m113.24 736.36h-12.858v61h12.651c0.72099 0.1277 1.5263-0.6904 1.5746-1.3482 0.29029-3.9517 0.84384-14.765 0.84034-28.994s-0.42098-25.806-0.80978-29.281c-0.0803-0.71741-0.85699-1.3663-1.3982-1.3767z" fill="#fff"/>
  </mask>
  <mask id="ab">
   <path d="m118.06 736.36h-5.4279c0.0772 0.39867-0.39109 0.79862-0.30954 1.1947 1.24 6.0226 0.95131 20.57 1.0944 29.786 0.15906 10.245-0.19406 24.387-1.066 28.67-0.0775 0.38075 0.36799 0.96923 0.28107 1.3491h5.4279c0.56737-1.9044 1.7551-10.615 1.7496-30.343s-1.2044-29.16-1.7496-30.657z" fill="#fff"/>
  </mask>
  <mask id="aa">
   <path d="m485.82 736.36h-367.05v61h367.05c1.0775-1.1745 3.498-15.201 3.5241-29.581 0.0268-14.761-2.3702-29.889-3.5241-31.419z" fill="#fff"/>
  </mask>
  <mask id="z">
   <path d="m105.2 736.36h-61.524c0.17693 0.39867-1.115 0.82324-0.70976 1.1947 3.2421 2.9721 4.6352 20.57 4.9634 29.786 0.36472 10.245-1.3036 26.37-4.8981 28.67-0.51885 0.33199 0.84379 0.96923 0.64449 1.3491h61.524c2.8963-1.5993 7.7053-10.615 7.6926-30.343s-4.0494-29.313-7.6926-30.657z" fill="#fff"/>
  </mask>
  <mask id="y">
   <path d="m96.4 736.14h-50.623v61.44h50.623c8.6784-0.96172 16.819-10.063 16.801-29.933s-11.624-29.681-16.801-31.507z" fill="#fff"/>
  </mask>
  <mask id="x">
   <path d="m-150.03-785.9h46.382l40 6.8728h-99.882z" fill="url(#ao)"/>
  </mask>
  <mask id="w">
   <path d="m-112.64 843.38c-17.285 7.5247-34.556 17.61-51.841 22.826-0.36543-0.58944-1.0046-0.83197-1.686-0.83197-1.1146 0-1.972 0.89141-1.972 2.162s0.94976 1.931 2.0644 1.931c0.73966 0 1.3368-0.10423 1.6882-0.7807 17.255 5.2237 34.491 15.314 51.747 22.826l68.617-11.503 2.9957-12.474h0.03153l-0.03153-0.0719 0.03153-0.10784h-0.03153l-2.9957-12.474z" fill="url(#ai)"/>
  </mask>
  <mask id="v">
   <path d="m36 851.38c-2.0125 1.4968-4.3545 10.929-4.375 30.656s2.2808 28.439 4.375 30.344h85c-0.68397-1.1745-2.2335-15.214-2.25-29.594-0.017-14.761 1.5175-29.876 2.25-31.406h-85z" fill="url(#ah)"/>
  </mask>
  <radialGradient id="u" cx="-185.41" cy="790.21" r="3" gradientTransform="matrix(0 -.6162 .66667 0 -473.07 224.74)" gradientUnits="userSpaceOnUse">
   <stop stop-color="#fea" offset="0"/>
   <stop stop-color="#fff" stop-opacity=".25" offset="1"/>
  </radialGradient>
 </defs>
 <path transform="matrix(.9921 0 0 1.0936 222.38 -499.86)" d="m524.28125,777.375c.0721.18953-.35745.36942-.28125.55769 .14185.35055.27261.76699.375,1.22693h-13.34375c-.0466-.28224-.10968-.52535-.15625-.71108-.0829-.33056-.87855-.62261-1.4375-.62739h-13.28125v.44616h-83.15625-377c-.64627.21446-1.31306.80392-1.9375,1.78461h-57.6875c-.91928.22781-1.80195.66071-2.59375,1.33846h-18.375c-.62857.15576-1.24477.42064-1.8125.80866-2.39032-.41903-4.29084-.63693-5.1875-.50192h-9.0625l-.40625.12545h-4.40625c-1.80571.45022-3.66539,1.84681-4.71875,4.61493l-67.46875-5.04712c-17.28534,3.35718-34.55899,7.85075-51.84375,10.17789-.36543-.26296-.97492-.3625-1.65625-.3625-1.11459,0-2,.39516-2,.962s.94791.86442 2.0625.86442c.73966,0 1.3361-.0467 1.6875-.34854 17.25536,2.33058 34.49404,6.82643 51.75,10.17789l67.6875-5.06108c1.0716,2.36836 2.79559,3.60122 4.5,4.09904h4.40625c.13582.0489.27016.0999.40625.13942h9.09375c1.2058.0774 3.12388-.20059 5.15625-.57161 .57412.40368 1.16924.70555 1.8125.89231h18.4375c.76827.6404 1.63594,1.07853 2.53125,1.33846h57.65625c.61876.93398 1.30879,1.51683 1.96875,1.78461h377 83.15625v.44616h13.0625c.74463.0588 1.57509-.32431 1.625-.62743 .0275-.167.0623-.49202.0937-.71104h13.40625c-.0954.45352-.19793.85693-.3125,1.14327-.0724.18101.33122.46075.25.64135h5.09375c.0588-.10047.11671-.26328.1875-.44615h224.6875c.0373.0551.0516.10913.0312.15334h25.09375c.31649-.19974.65558-.68204 1.03125-1.40815h9.21875c.60843-.0983 1.19218-.3977 1.75-.92019 .58642-.0932 1.14375-.21706 1.6875-.37647 4.42568-4.40648 2.8507-9.39462 3.1875-14.09565-.34065-3.20914-1.06415-6.57327-4.59375-9.39711-.34813-.114-.73798-.15518-1.15625-.16731-.32027-.3095-.63134-.52999-.875-.65531h-9.0625c-.39249-.76065-.78232-1.22331-1.1875-1.39423h-25.09375c.0196.0505.0116.1019-.0312.15338h-224.65625c-.0794-.20902-.15506-.35719-.21875-.44615h-5.09375z" filter="url(#br)" opacity=".25"/>
 <path transform="matrix(.97201 0 0 1.0936 238.44 -504.86)" d="m524.28125,777.375c.0721.18953-.35745.36942-.28125.55769 .14185.35055.27261.76699.375,1.22693h-13.34375c-.0466-.28224-.10968-.52535-.15625-.71108-.0829-.33056-.87855-.62261-1.4375-.62739h-13.28125v.44616h-83.15625-377c-.64627.21446-1.31306.80392-1.9375,1.78461h-57.6875c-.91928.22781-1.80195.66071-2.59375,1.33846h-18.375c-.62857.15576-1.24477.42064-1.8125.80866-2.39032-.41903-4.29084-.63693-5.1875-.50192h-9.0625l-.40625.12545h-4.40625c-1.80571.45022-3.66539,1.84681-4.71875,4.61493l-67.46875-5.04712c-17.28534,3.35718-34.55899,7.85075-51.84375,10.17789-.36543-.26296-.97492-.3625-1.65625-.3625-1.11459,0-2,.39516-2,.962s.94791.86442 2.0625.86442c.73966,0 1.3361-.0467 1.6875-.34854 17.25536,2.33058 34.49404,6.82643 51.75,10.17789l67.6875-5.06108c1.0716,2.36836 2.79559,3.60122 4.5,4.09904h4.40625c.13582.0489.27016.0999.40625.13942h9.09375c1.2058.0774 3.12388-.20059 5.15625-.57161 .57412.40368 1.16924.70555 1.8125.89231h18.4375c.76827.6404 1.63594,1.07853 2.53125,1.33846h57.65625c.61876.93398 1.30879,1.51683 1.96875,1.78461h377 83.15625v.44616h13.0625c.74463.0588 1.57509-.32431 1.625-.62743 .0275-.167.0623-.49202.0937-.71104h13.40625c-.0954.45352-.19793.85693-.3125,1.14327-.0724.18101.33122.46075.25.64135h5.09375c.0588-.10047.11671-.26328.1875-.44615h224.6875c.0373.0551.0516.10913.0312.15334h25.09375c.31649-.19974.65558-.68204 1.03125-1.40815h9.21875c.60843-.0983 1.19218-.3977 1.75-.92019 .58642-.0932 1.14375-.21706 1.6875-.37647 4.42568-4.40648 2.8507-9.39462 3.1875-14.09565-.34065-3.20914-1.06415-6.57327-4.59375-9.39711-.34813-.114-.73798-.15518-1.15625-.16731-.32027-.3095-.63134-.52999-.875-.65531h-9.0625c-.39249-.76065-.78232-1.22331-1.1875-1.39423h-25.09375c.0196.0505.0116.1019-.0312.15338h-224.65625c-.0794-.20902-.15506-.35719-.21875-.44615h-5.09375z" filter="url(#bs)" opacity=".2"/>
 <path d="m1009.1 311.39c-3.6172 0.83869-7.3888-0.63307-10.969 0.53125 0.054 17.937 0.023 35.875 0.031 53.812 4.871-0.84658 10.625 1.469 14.906-1.3438 4.4256-9.8766 2.8655-21.056 3.2023-31.592-0.3407-7.1929-1.079-14.734-4.6086-21.064-0.7321-0.53733-1.7012-0.36532-2.5625-0.34375z" fill="url(#r)"/>
 <g transform="matrix(.28593 0 0 .93443 982.06 -377.98)" mask="url(#y)">
  <path d="m26 736.36h102v61h-102z" fill="#f2d88e"/>
  <path transform="scale(1,-1)" d="m26-768.9h102v21.226h-102z" fill="url(#aq)"/>
  <path d="m26 736.4h102v11.742h-102z" fill="url(#ap)"/>
  <path d="m26 767.88h102v29.154h-102z" fill="url(#e)"/>
 </g>
 <g transform="matrix(.93443 0 0 .93443 634.05 -377.98)" mask="url(#ad)">
  <path d="m26 736.36h102v61h-102z" fill="#f2d88e"/>
  <path transform="scale(1,-1)" d="m26-768.9h102v19.616h-102z" fill="url(#aw)"/>
  <path d="m26 736.4h102v15.212h-102z" fill="url(#av)"/>
  <path d="m26 767.88h102v29.154h-102z" fill="url(#e)"/>
 </g>
 <path d="m107.36 315.11c-17.285 7.5247-34.556 17.61-51.841 22.826-0.36543-0.58944-1.0046-0.83197-1.686-0.83197-1.1146 0-1.972 0.89141-1.972 2.162s0.94976 1.931 2.0644 1.931c0.73966 0 1.3368-0.10423 1.6882-0.7807 17.255 5.2237 34.491 15.314 51.747 22.826l68.617-11.503 2.9957-12.474h0.0315l-0.0315-0.0719 0.0315-0.10784h-0.0315l-2.9957-12.474z" fill="url(#bi)"/>
 <path d="m107.31 315.37 70.039 11.554-2.633 14.658-87.578-13.568 0.5404-3.4882z" fill="url(#bj)"/>
 <path d="m107.31 363.08 70.039-11.554-2.633-14.658-87.578 13.568 0.5404 3.4882z" fill="url(#bk)"/>
 <path d="m179.52 316.07c-2.7283 1.5246-5.5723 7.8303-5.5873 22.389-0.015 14.559 2.7991 20.803 5.5873 22.629h9.5201c-2.7882-1.8254-5.1023-8.0698-5.0873-22.629 0.015-14.559 2.359-20.865 5.0873-22.389z" fill="url(#r)"/>
 <g transform="matrix(.74744 0 0 .74744 157.45 -234.59)" mask="url(#ae)">
  <path d="m26 736.36h102v61h-102z" fill="#f2d88e"/>
  <path transform="scale(1,-1)" d="m26-768.9h102v17.074h-102z" fill="url(#bb)"/>
  <path d="m26 736.4h102v16.307h-102z" fill="url(#ba)"/>
  <path d="m26 767.88h102v29.154h-102z" fill="url(#e)"/>
 </g>
 <g transform="matrix(.77049 0 0 .77049 172.67 -252.27)" mask="url(#j)">
  <path d="m26 736.36h102v61h-102z" fill="#f2d88e"/>
  <path transform="scale(1,-1)" d="m26-768.9h102v16.499h-102z" fill="url(#bd)"/>
  <path d="m26 736.4h102v16.434h-102z" fill="url(#bc)"/>
  <path d="m26 767.88h102v29.154h-102z" fill="url(#e)"/>
 </g>
 <g transform="matrix(.86885 0 0 .86885 190.1 -327.7)" mask="url(#j)">
  <path d="m26 736.36h102v61h-102z" fill="#f2d88e"/>
  <path transform="scale(1,-1)" d="m26-768.9h102v14.982h-102z" fill="url(#bf)"/>
  <path d="m26 736.4h102v17.936h-102z" fill="url(#be)"/>
  <path d="m26 767.88h102v29.154h-102z" fill="url(#e)"/>
 </g>
 <g transform="translate(220 -428.27)" mask="url(#af)">
  <path d="m26 736.36h102v61h-102z" fill="#f2d88e"/>
  <path transform="scale(1,-1)" d="m26-768.9h102v14.654h-102z" fill="url(#bg)"/>
  <path d="m26 736.4h102v19.642h-102z" fill="url(#bh)"/>
  <path d="m26 767.88h102v29.154h-102z" fill="url(#e)"/>
 </g>
 <path transform="scale(1,-1)" d="m177.44-342.36h170.56v5.7293h-170.56z" fill="url(#s)" opacity=".75"/>
 <path d="m178.97 357.63h163.03v-6.8728h-163.03z" fill="url(#bl)" opacity=".4"/>
 <path transform="matrix(.2182 0 0 .83915 168.8 -303)" d="m46.281 780.36h748.72v10h-728.89z" fill="url(#h)" filter="url(#i)" opacity=".75"/>
 <g transform="translate(220 -428.27)" mask="url(#ag)">
  <path d="m116 736.36h382v61h-382z" fill="url(#n)"/>
  <path d="m116 768.9h382v28.467h-382z" fill="url(#o)"/>
  <path transform="scale(1,-1)" d="m116-768.9h382v18.978h-382z" fill="url(#p)"/>
  <path transform="scale(1,-1)" d="m116-768.9h382v2.7111h-382z" fill="url(#q)"/>
 </g>
 <path transform="matrix(.93621 0 0 .73106 190.3 -222.09)" d="m-8.5463 736.9c-3.7593 1.9684-5.5635 16.403-5.6876 30.4-0.10941 12.34 2.1815 27.803 5.6876 29.423" fill="none" filter="url(#bx)" opacity=".15" stroke="#fff" stroke-linecap="round" stroke-width="2.4175"/>
 <path transform="matrix(1 0 0 -1 245 -428.27)" d="m-150.03-785.9h46.382l40 6.8728h-99.882z" fill="url(#az)" mask="url(#x)" opacity=".4"/>
 <path d="m59.5625,337.62728-3.8125.93717-.0937.0218c.29313-.50418-.85575-1.5711-1.90079-1.47048-1.3387.12889-2.07641,1.30245-1.75546,2.2333 .008.0226-.002.0417 0,.0654 .0532.73724.6886,1.66022 2,1.7487 1.00076.0675 1.30342-.45054 1.46875-.87691l.15625.0436 5.78125,1.2859h112.59375v-3.98846h-114.4375z" fill="url(#bm)" opacity=".7"/>
 <path d="m52.333 338.92 54.889 0.65829-54.889 0.3256z" fill="#f6e4b0" filter="url(#bw)" opacity=".75"/>
 <path d="m56 339.09a2 2 0 0 1 -4 0 2 2 0 1 1 4 0z" fill="url(#u)"/>
 <g fill="#fff" filter="url(#c)" font-family="Adobe Arabic" font-size="6.8356" font-style="italic" letter-spacing="0" opacity=".75" text-anchor="middle" word-spacing="0">
  <path d="m297.45291,330.32138c-1e-005,.22029-.0384.42444-.11515.61247s-.18414.35101-.32209.48897c-.17134.17134-.37383.29984-.60746.3855s-.52847.12851-.88449.1285h-.66087v1.85243h-.66086v-4.96984h1.34843c.29816,1e-005 .55072.025.75766.0751s.3905.12851.55072.23531c.18913.12684.33543.28482.4389.47395s.1552.42834.15521.71761zm-.68757.0167c0-.17134-.03-.32042-.0901-.44726s-.15131-.23029-.27369-.3104c-.10681-.069-.22863-.11849-.36548-.14853s-.30985-.0451-.51901-.0451h-.65419v1.98593h.5574c.26701,0 .48396-.0239.65085-.0718s.30261-.12405.4072-.22863c.10458-.1068.17856-.21917.22195-.33711s.0651-.25032.0651-.39718z"/>
  <path d="m301.6 333.79h-3.2743v-4.9698h3.2743v0.58744h-2.6134v1.3618h2.6134v0.58743h-2.6134v1.8458h2.6134z"/>
  <path d="m306.44 333.79h-0.81773l-2.3564-4.4458v4.4458h-0.61747v-4.9698h1.0247l2.1495 4.0586v-4.0586h0.61747z"/>
 </g>
 <g fill="#aa7510" font-family="Adobe Arabic" font-size="6.8356" font-style="italic" letter-spacing="0" opacity=".75" text-anchor="middle" word-spacing="0">
  <path d="m297.45291,330.82138c-1e-005,.22029-.0384.42444-.11515.61247s-.18414.35101-.32209.48897c-.17134.17134-.37383.29984-.60746.3855s-.52847.12851-.88449.1285h-.66087v1.85243h-.66086v-4.96984h1.34843c.29816,1e-005 .55072.025.75766.0751s.3905.12851.55072.23531c.18913.12684.33543.28482.4389.47395s.1552.42834.15521.71761zm-.68757.0167c0-.17134-.03-.32042-.0901-.44726s-.15131-.23029-.27369-.3104c-.10681-.069-.22863-.11849-.36548-.14853s-.30985-.0451-.51901-.0451h-.65419v1.98593h.5574c.26701,0 .48396-.0239.65085-.0718s.30261-.12405.4072-.22863c.10458-.1068.17856-.21917.22195-.33711s.0651-.25032.0651-.39718z"/>
  <path d="m301.6 334.29h-3.2743v-4.9698h3.2743v0.58744h-2.6134v1.3618h2.6134v0.58743h-2.6134v1.8458h2.6134z"/>
  <path d="m306.44 334.29h-0.81773l-2.3564-4.4458v4.4458h-0.61747v-4.9698h1.0247l2.1495 4.0586v-4.0586h0.61747z"/>
 </g>
 <g transform="matrix(1.0829 0 -.16078 .90955 350.16 -416.63)" fill="#fff" filter="url(#bv)" font-family="Adobe Arabic" font-size="11.081" font-style="italic" letter-spacing="0" opacity=".75" text-anchor="middle" word-spacing="0">
  <path d="m53.78217,809.09375-.04329.22184c.31202.0204.49824.0743.55866.16165s.05456.2968-.01759.62832l-.60059,3.1274c-.05028.31755-.12287.52248-.21778.6148s-.28384.1471-.56678.16435l-.05952.22184h2.18594l.05411-.22184c-.35531-.0172-.57399-.072-.65605-.16435s-.08702-.29725-.01488-.6148l.27054-1.42843h.80079c.34482-.01.55606.0258.63373.10618s.11171.26322.10213.54852h.23807l.303-1.55829h-.23266c-.09751.25351-.19873.41471-.30368.48358s-.32656.0989-.66484.09h-.81161l.33547-1.78013c.02164-.13143.0541-.21755.09739-.25836s.12986-.0593.25971-.0555h.63847c.27899,0 .47174.0216.57827.0649s.17348.10822.20087.19478c.03167.0803.05489.18217.06966.30571s.02581.25792.03314.4031l.23807-.0216c.03077-.2445.05985-.4873.08725-.72842s.047-.40952.05884-.50523z"/>
  <path d="m60.58346,808.9693c-.88004.0253-1.59538.33322-2.14603.92389s-.83449,1.31255-.85152,2.16564c.01217.70182.22454,1.25822.63711,1.66921s.95229.62111 1.61916.63035c.88736-.0207 1.60563-.31742 2.15483-.89006s.83189-1.29677.84813-2.17241c-.01173-.70768-.22365-1.26994-.63576-1.6868s-.9541-.63012-1.62593-.63982zm-.05952.29218c.52101.0118.89931.19919 1.1349.56204s.35147.83022.34764,1.40206c-.0013.44559-.08464.88426-.2499,1.31601s-.40447.79107-.71762,1.07794-.69224.43576-1.13726.44668c-.50207-.0121-.87496-.1976-1.11867-.55662s-.365-.81917-.36387-1.38042c.0096-.73732.20414-1.39179.58368-1.96342s.88657-.87304 1.52109-.90427z"/>
  <path d="m69.31097,809.09375h-1.89917l-.05411.22184c.28722.0119.4838.0476.58977.10686s.15105.16796.13527.326c-.0045.13392-.02255.31518-.05411.54378s-.08207.5289-.1515.90088l-.1028.51944c-.14677.75953-.36996,1.31819-.66958,1.67597s-.68784.53499-1.16466.53161c-.42441.006-.75108-.14812-.98002-.46262s-.28102-.82581-.15624-1.53395l.34629-1.87211c.04937-.30593.11971-.50026.21102-.58301s.28068-.13368.56813-.15285l.05411-.22184h-2.07231l-.05411.22184c.31281.0198.50286.0721.57016.15691s.06662.27776-.002.57895l-.35711,1.90458c-.09311.50793-.10168.9205-.0257,1.2377s.21079.55934.40445.7264c.18081.15792.38191.27087.6033.33884s.44954.10112.68446.0994c.24393.00079.48786-.0414.7318-.12647s.46893-.2179.67499-.39837c.26918-.25182.47749-.55167.62494-.89953s.25836-.72616.33276-1.1349l.11904-.60601c.06943-.36646.1294-.66292.17991-.88938s.09694-.40795.13933-.54446c.03426-.14428.09829-.25069.19208-.31923s.27143-.11002.53296-.12445z"/>
  <path d="m75.06259,809.09375h-1.84506l-.05411.22184c.28654.014.48042.055.58165.12309s.14361.19299.12715.3747c-.0069.10709-.02559.26761-.05614.48155s-.08038.50433-.14947.87113l-.36252,1.9154h-.02164l-2.44565-3.98771h-1.22824l-.0487.22184c.21158.0136.36737.0364.46735.0683s.17325.0885.21981.16976c.05298.0735.08499.16188.09604.26513s-.0083.26738-.05817.49238l-.39498,1.87211c-.07699.3606-.14079.64309-.1914.84746s-.09683.37458-.13865.51063c-.05118.16909-.13144.28677-.24078.35305s-.26535.10551-.46803.11769l-.05411.22184h1.87753l.04329-.22184c-.27877-.014-.46792-.055-.56745-.1231s-.14124-.19298-.12512-.37469c.007-.12648.02547-.29421.05546-.5032s.07823-.47952.14474-.81161l.40581-2.08854h.02705l2.47812,4.18791h.27054l.60059-3.13823c.06492-.365.12309-.65492.1745-.86978s.09604-.3722.13392-.47208c.04125-.17044.10889-.29353.2029-.36928s.25903-.12039.49508-.13392z"/>
  <path d="m79.78074,808.89896c-.06798.0744-.12952.12581-.18464.15421s-.13426.0419-.2374.0406h-3.11658c-.10619.004-.1887-.005-.24754-.0264s-.10619-.0774-.14203-.16841h-.18396c-.04712.22207-.10438.45834-.17179.70881s-.1382.49757-.21237.74127h.24889c.13797-.32915.27324-.57443.40581-.73586 .06628-.0854.16503-.14586.29624-.18126s.36793-.0525.71016-.0514h.4004l-.74127,3.89032c-.04509.30446-.11723.50038-.21643.58774s-.31202.13854-.63847.15353l-.0487.22184h2.26169l.0487-.22184c-.35272-.0147-.56982-.0652-.65132-.1515s-.08624-.28294-.0142-.58977l.72504-3.89032h.49779c.29319-.002.50083.0132.62291.0467s.20121.0991.2374.19681c.07394.16594.1046.40761.09198.72504l.25971-.0216c.02479-.23401.05365-.48426.08657-.75074s.06718-.49237.1028-.6777z"/>
  <path d="m84.65582,814.01211c-.27471-.0197-.45575-.075-.5431-.16571s-.15342-.27718-.19817-.55933c-.18216-.97664-.36433-1.98303-.54648-3.01919l-.22184-1.29317-.28677.0758-2.40237,4.17709c-.1825.32386-.33287.52969-.45112.6175s-.29432.1435-.52822.16706l-.05952.22184h1.77472l.05411-.22184c-.31033-.0219-.49452-.0688-.55257-.14068s-.02717-.2162.09266-.43286c.09029-.18509.18565-.37492.28609-.56948l.24957-.4802h1.70438l.10551.5918c.03246.18002.06222.35429.08928.52281 .03922.17134.0284.29263-.03246.36387s-.22861.11949-.5032.14474l-.05952.22184h1.96951zm-1.68274-1.97492h-1.4609c.17111-.32599.34967-.6547.53566-.98611s.37537-.67363.56813-1.02668h.01623z"/>
  <path d="m88.11328,809.09375h-2.12101l-.05411.22184c.32859.0205.52901.0715.60127.15285s.07383.26491.0047.55055l-.62223,3.2789c-.04599.28677-.11633.47344-.21102.56001s-.29489.13798-.60059.15421l-.05411.22184h2.13183l.05952-.22184c-.326-.0156-.52484-.0656-.59653-.15015s-.07305-.27257-.0041-.56407l.62223-3.2789c.04543-.28564.11283-.46916.20223-.55055s.2853-.13233.58774-.15285z"/>
  <path d="m94.04344,809.09375h-1.84506l-.05411.22184c.28654.014.48042.055.58165.12309s.14361.19299.12715.3747c-.0069.10709-.02559.26761-.05614.48155s-.08038.50433-.14947.87113l-.36252,1.9154h-.02164l-2.44565-3.98771h-1.22824l-.0487.22184c.21158.0136.36737.0364.46735.0683s.17325.0885.21981.16976c.05298.0735.08499.16188.09604.26513s-.0083.26738-.05817.49238l-.39498,1.87211c-.07699.3606-.14079.64309-.1914.84746s-.09683.37458-.13865.51063c-.05118.16909-.13144.28677-.24078.35305s-.26535.10551-.46803.11769l-.05411.22184h1.87753l.04329-.22184c-.27877-.014-.46792-.055-.56745-.1231s-.14124-.19298-.12512-.37469c.007-.12648.02547-.29421.05546-.5032s.07823-.47952.14474-.81161l.40581-2.08854h.02705l2.47812,4.18791h.27054l.60059-3.13823c.06492-.365.12309-.65492.1745-.86978s.09604-.3722.13392-.47208c.04125-.17044.10889-.29353.2029-.36928s.25903-.12039.49508-.13392z"/>
 </g>
 <g transform="matrix(1.0829 0 -.16078 .90955 350.16 -416.63)" fill="#aa7510" font-family="Adobe Arabic" font-size="11.081" font-style="italic" letter-spacing="0" text-anchor="middle" word-spacing="0">
  <path d="m53.78217,809.63519-.04329.22184c.31202.0204.49824.0743.55866.16165s.05456.2968-.01759.62832l-.60059,3.1274c-.05028.31755-.12287.52248-.21778.6148s-.28384.1471-.56678.16435l-.05952.22184h2.18594l.05411-.22184c-.35531-.0172-.57399-.072-.65605-.16435s-.08702-.29725-.01488-.6148l.27054-1.42843h.80079c.34482-.01.55606.0258.63373.10619s.11171.26321.10213.54851h.23807l.303-1.55829h-.23266c-.09751.25352-.19873.41471-.30368.48358s-.32656.0989-.66484.09h-.81161l.33547-1.78014c.02164-.13143.0541-.21755.09739-.25836s.12986-.0593.25971-.0555h.63847c.27899,1e-005 .47174.0217.57827.0649s.17348.10822.20087.19479c.03167.0803.05489.18216.06966.3057s.02581.25792.03314.4031l.23807-.0216c.03077-.24449.05985-.4873.08725-.72842s.047-.40952.05884-.50523z"/>
  <path d="m60.58346,809.51075c-.88004.0252-1.59538.33321-2.14603.92388s-.83449,1.31256-.85152,2.16565c.01217.70181.22454,1.25822.63711,1.66921s.95229.6211 1.61916.63035c.88736-.0207 1.60563-.31743 2.15483-.89007s.83189-1.29677.84813-2.17241c-.01173-.70767-.22365-1.26994-.63576-1.68679s-.9541-.63012-1.62593-.63982zm-.05952.29218c.52101.0118.89931.19918 1.1349.56204s.35147.83021.34764,1.40205c-.0013.44559-.08464.88426-.2499,1.31601s-.40447.79107-.71762,1.07794-.69224.43577-1.13726.44669c-.50207-.0121-.87496-.19761-1.11867-.55663s-.365-.81916-.36387-1.38042c.0096-.73732.20414-1.39179.58368-1.96342s.88657-.87304 1.52109-.90426z"/>
  <path d="m69.31097,809.63519h-1.89917l-.05411.22184c.28722.012.4838.0476.58977.10686s.15105.16797.13527.326c-.0045.13392-.02255.31518-.05411.54378s-.08207.5289-.1515.90089l-.1028.51943c-.14677.75953-.36996,1.31819-.66958,1.67597s-.68784.53499-1.16466.53161c-.42441.006-.75108-.14812-.98002-.46262s-.28102-.82581-.15624-1.53394l.34629-1.87212c.04937-.30592.11971-.50026.21102-.583s.28068-.13369.56813-.15286l.05411-.22184h-2.07231l-.05411.22184c.31281.0199.50286.0721.57016.15691s.06662.27776-.002.57895l-.35711,1.90458c-.09311.50794-.10168.9205-.0257,1.23771s.21079.55933.40445.72639c.18081.15792.38191.27087.6033.33885s.44954.10111.68446.0994c.24393.00079.48786-.0414.7318-.12648s.46893-.21789.67499-.39836c.26918-.25183.47749-.55167.62494-.89954s.25836-.72616.33276-1.1349l.11904-.606c.06943-.36646.1294-.66293.17991-.88939s.09694-.40794.13933-.54446c.03426-.14428.09829-.25069.19208-.31923s.27143-.11001.53296-.12445z"/>
  <path d="m75.06259,809.63519h-1.84506l-.05411.22184c.28654.014.48042.055.58165.1231s.14361.19298.12715.37469c-.0069.10709-.02559.26761-.05614.48156s-.08038.50432-.14947.87112l-.36252,1.9154h-.02164l-2.44565-3.98771h-1.22824l-.0487.22184c.21158.0136.36737.0364.46735.0683s.17325.0885.21981.16977c.05298.0735.08499.16187.09604.26512s-.0083.26739-.05817.49238l-.39498,1.87211c-.07699.36061-.14079.64309-.1914.84746s-.09683.37458-.13865.51064c-.05118.16908-.13144.28677-.24078.35305s-.26535.10551-.46803.11768l-.05411.22184h1.87753l.04329-.22184c-.27877-.014-.46792-.055-.56745-.12309s-.14124-.19299-.12512-.3747c.007-.12647.02547-.2942.05546-.5032s.07823-.47952.14474-.81161l.40581-2.08854h.02705l2.47812,4.18791h.27054l.60059-3.13823c.06492-.36499.12309-.65492.1745-.86977s.09604-.37221.13392-.47209c.04125-.17043.10889-.29353.2029-.36928s.25903-.12039.49508-.13392z"/>
  <path d="m79.78074,809.44041c-.06798.0744-.12952.1258-.18464.1542s-.13426.0419-.2374.0406h-3.11658c-.10619.004-.1887-.005-.24754-.0264s-.10619-.0774-.14203-.16841h-.18396c-.04712.22207-.10438.45834-.17179.7088s-.1382.49757-.21237.74127h.24889c.13797-.32915.27324-.57443.40581-.73586 .06628-.0854.16503-.14586.29624-.18126s.36793-.0525.71016-.0514h.4004l-.74127,3.89032c-.04509.30447-.11723.50038-.21643.58774s-.31202.13854-.63847.15353l-.0487.22184h2.26169l.0487-.22184c-.35272-.0146-.56982-.0652-.65132-.1515s-.08624-.28294-.0142-.58977l.72504-3.89032h.49779c.29319-.002.50083.0132.62291.0467s.20121.0991.2374.19681c.07394.16594.1046.40762.09198.72504l.25971-.0216c.02479-.23401.05365-.48426.08657-.75074s.06718-.49237.1028-.67769z"/>
  <path d="m84.65582,814.55355c-.27471-.0197-.45575-.075-.5431-.1657s-.15342-.27719-.19817-.55934c-.18216-.97663-.36433-1.98303-.54648-3.01919l-.22184-1.29316-.28677.0757-2.40237,4.17708c-.1825.32386-.33287.52969-.45112.6175s-.29432.1435-.52822.16706l-.05952.22184h1.77472l.05411-.22184c-.31033-.0219-.49452-.0688-.55257-.14068s-.02717-.2162.09266-.43286c.09029-.18509.18565-.37492.28609-.56948l.24957-.4802h1.70438l.10551.5918c.03246.18002.06222.35429.08928.52281 .03922.17134.0284.29263-.03246.36387s-.22861.11949-.5032.14474l-.05952.22184h1.96951zm-1.68274-1.97492h-1.4609c.17111-.32599.34967-.65469.53566-.9861s.37537-.67364.56813-1.02669h.01623z"/>
  <path d="m88.11328,809.63519h-2.12101l-.05411.22184c.32859.0205.52901.0715.60127.15286s.07383.2649.0047.55054l-.62223,3.2789c-.04599.28677-.11633.47344-.21102.56001s-.29489.13798-.60059.15421l-.05411.22184h2.13183l.05952-.22184c-.326-.0156-.52484-.0656-.59653-.15015s-.07305-.27256-.0041-.56407l.62223-3.2789c.04543-.28564.11283-.46915.20223-.55054s.2853-.13234.58774-.15286z"/>
  <path d="m94.04344,809.63519h-1.84506l-.05411.22184c.28654.014.48042.055.58165.1231s.14361.19298.12715.37469c-.0069.10709-.02559.26761-.05614.48156s-.08038.50432-.14947.87112l-.36252,1.9154h-.02164l-2.44565-3.98771h-1.22824l-.0487.22184c.21158.0136.36737.0364.46735.0683s.17325.0885.21981.16977c.05298.0735.08499.16187.09604.26512s-.0083.26739-.05817.49238l-.39498,1.87211c-.07699.36061-.14079.64309-.1914.84746s-.09683.37458-.13865.51064c-.05118.16908-.13144.28677-.24078.35305s-.26535.10551-.46803.11768l-.05411.22184h1.87753l.04329-.22184c-.27877-.014-.46792-.055-.56745-.12309s-.14124-.19299-.12512-.3747c.007-.12647.02547-.2942.05546-.5032s.07823-.47952.14474-.81161l.40581-2.08854h.02705l2.47812,4.18791h.27054l.60059-3.13823c.06492-.36499.12309-.65492.1745-.86977s.09604-.37221.13392-.47209c.04125-.17043.10889-.29353.2029-.36928s.25903-.12039.49508-.13392z"/>
 </g>
 <g transform="translate(220 -528.27)" fill="none" mask="url(#w)">
  <path d="m-126 867.36 32-44" opacity=".15" stroke="#fff"/>
  <path d="m-111 867.36 42-44" opacity=".15" stroke="#fff"/>
  <path d="m-81 867.36 42-44" opacity=".15" stroke="#fff"/>
  <path d="m-50 867.36-42-44" opacity=".15" stroke="#fff"/>
  <path d="m-80 867.36-42-44" opacity=".15" stroke="#fff"/>
  <path d="m-110 867.36-32-44" opacity=".15" stroke="#fff"/>
  <path d="m-125 867.36-32-44" opacity=".15" stroke="#fff"/>
  <path d="m-140 867.36-32-44" opacity=".15" stroke="#fff"/>
  <path d="m-160.29 860.93c55.292-1.574 58.718-14.998 115-8.574" opacity=".15" stroke="#fff"/>
  <path d="m-126 866.36 32 44" opacity=".15" stroke="#fff"/>
  <path d="m-111 866.36 42 44" opacity=".15" stroke="#fff"/>
  <path d="m-81 866.36 42 44" opacity=".15" stroke="#fff"/>
  <path d="m-50 866.36-42 44" opacity=".15" stroke="#fff"/>
  <path d="m-80 866.36-42 44" opacity=".15" stroke="#fff"/>
  <path d="m-110 866.36-32 44" opacity=".15" stroke="#fff"/>
  <path d="m-125 866.36-32 44" opacity=".15" stroke="#fff"/>
  <path d="m-140 866.36-32 44" opacity=".15" stroke="#fff"/>
  <path d="m-160.29 872.79c55.292 1.574 58.718 14.998 115 8.574" opacity=".15" stroke="#fff"/>
  <path d="m-125 867.36 32-44" filter="url(#a)" opacity=".2" stroke="#8f6b02"/>
  <path d="m-110 867.36 42-44" filter="url(#a)" opacity=".2" stroke="#8f6b02"/>
  <path d="m-80 867.36 42-44" filter="url(#a)" opacity=".2" stroke="#8f6b02"/>
  <path d="m-49 867.36-42-44" filter="url(#a)" opacity=".2" stroke="#8f6b02"/>
  <path d="m-79 867.36-42-44" filter="url(#a)" opacity=".2" stroke="#8f6b02"/>
  <path d="m-109 867.36-32-44" filter="url(#a)" opacity=".2" stroke="#8f6b02"/>
  <path d="m-124 867.36-32-44" filter="url(#a)" opacity=".2" stroke="#8f6b02"/>
  <path d="m-139 867.36-32-44" filter="url(#a)" opacity=".2" stroke="#8f6b02"/>
  <path d="m-159.29 860.93c55.292-1.574 58.718-14.998 115-8.574" filter="url(#a)" opacity=".2" stroke="#8f6b02"/>
  <path d="m-125 866.36 32 44" filter="url(#a)" opacity=".2" stroke="#8f6b02"/>
  <path d="m-110 866.36 42 44" filter="url(#a)" opacity=".2" stroke="#8f6b02"/>
  <path d="m-80 866.36 42 44" filter="url(#a)" opacity=".2" stroke="#8f6b02"/>
  <path d="m-49 866.36-42 44" filter="url(#a)" opacity=".2" stroke="#8f6b02"/>
  <path d="m-79 866.36-42 44" filter="url(#a)" opacity=".2" stroke="#8f6b02"/>
  <path d="m-109 866.36-32 44" filter="url(#a)" opacity=".2" stroke="#8f6b02"/>
  <path d="m-124 866.36-32 44" filter="url(#a)" opacity=".2" stroke="#8f6b02"/>
  <path d="m-139 866.36-32 44" filter="url(#a)" opacity=".2" stroke="#8f6b02"/>
  <path d="m-159.29 872.79c55.292 1.574 58.718 14.998 115 8.574" filter="url(#a)" opacity=".2" stroke="#8f6b02"/>
 </g>
 <g transform="matrix(1.0328 0 0 1.0328 612.48 -453.41)" mask="url(#ac)">
  <path d="m26 736.36h102v61h-102z" fill="#f2d88e"/>
  <path transform="scale(1,-1)" d="m26-768.9h102v18.76h-102z" fill="url(#ay)"/>
  <path d="m26 736.4h102v15.811h-102z" fill="url(#ax)"/>
  <path d="m26 767.88h102v29.154h-102z" fill="url(#e)"/>
 </g>
 <g transform="matrix(.6348 0 0 1.0328 672.36 -453.41)" mask="url(#aa)">
  <path d="m116 736.36h382v61h-382z" fill="url(#n)"/>
  <path d="m116 768.9h382v28.467h-382z" fill="url(#o)"/>
  <path transform="scale(1,-1)" d="m116-768.9h382v18.978h-382z" fill="url(#p)"/>
  <path transform="scale(1,-1)" d="m116-768.9h382v2.7111h-382z" fill="url(#q)"/>
 </g>
 <g transform="matrix(.40752 0 0 1.044 956.49 -462.02)" mask="url(#z)">
  <path d="m26 736.36h102v61h-102z" fill="#f2d88e"/>
  <path transform="scale(1,-1)" d="m26-768.09h102v23.494h-102z" fill="url(#as)"/>
  <path d="m26 736.4h102v12.655h-102z" fill="url(#ar)"/>
  <path d="m26 767.88h102v29.154h-102z" fill="url(#e)"/>
 </g>
 <g transform="matrix(.93443 0 0 1.0656 639.05 -478.55)" mask="url(#ab)">
  <path d="m26 736.36h102v61h-102z" fill="#f2d88e"/>
  <path transform="scale(1,-1)" d="m26-768.09h102v17.435h-102z" fill="url(#au)"/>
  <path d="m26 736.4h102v17.016h-102z" fill="url(#at)"/>
  <path d="m26 767.88h102v29.154h-102z" fill="url(#e)"/>
 </g>
 <path transform="scale(1,-1)" d="m715.6-342.36h37.404v5.7293h-37.404z" fill="url(#s)" opacity=".75"/>
 <path transform="scale(1,-1)" d="m715.76-357.63h37.24v6.8728h-37.24z" fill="url(#t)" opacity=".25"/>
 <path transform="matrix(2.211 0 0 .93483 -88.838 -378.41)" d="m496.63 737.13c1.231 3.5677 1.9656 22.836 2.0192 30.958 0.0804 12.179-0.54969 27.378-2.1522 28.905" fill="none" filter="url(#g)" opacity=".15" stroke="#fff" stroke-linecap="round" stroke-width=".69557"/>
 <path transform="scale(1,-1)" d="m975.6-340.36h38.899v5.7293h-38.899z" fill="url(#bn)" opacity=".25"/>
 <path transform="scale(1,-1)" d="m975.76-357.63h38.549v6.8728h-38.549z" fill="url(#t)" opacity=".25"/>
 <path transform="matrix(.24692 0 0 .83915 817.47 -303)" d="m639.77 780.36h155.23l-4.0499 10h-149.68z" fill="url(#h)" filter="url(#i)" opacity=".75"/>
 <path transform="matrix(1.6786 0 0 1.0453 140.79 -464.16)" d="m496.63 737.13c0.80832 3.3677 1.2048 22.436 1.2584 30.558 0.0804 12.179-0.21155 27.178-1.3913 29.305" fill="none" filter="url(#c)" opacity=".25" stroke="#fff" stroke-linecap="round" stroke-width=".75492"/>
 <path transform="matrix(2.211 0 0 1.0453 -98.838 -463.16)" d="m496.63 737.13c0.80832 3.3677 1.2048 22.436 1.2584 30.558 0.0804 12.179-0.21155 27.178-1.3913 29.305" fill="none" filter="url(#g)" opacity=".25" stroke="#000" stroke-linecap="round" stroke-width=".65779"/>
 <path transform="matrix(2.211 0 0 1.0453 -99.838 -463.16)" d="m496.63 737.13c0.80832 3.3677 1.2048 22.436 1.2584 30.558 0.0804 12.179-0.21155 27.178-1.3913 29.305" fill="none" filter="url(#g)" opacity=".15" stroke="#fff" stroke-linecap="round" stroke-width=".65779"/>
 <path transform="matrix(.84889 0 0 .93483 579.73 -378.41)" d="m496.63 737.13c1.231 3.5677 1.9656 22.836 2.0192 30.958 0.0804 12.179-0.54969 27.378-2.1522 28.905" fill="none" filter="url(#g)" opacity=".1" stroke="#000" stroke-linecap="round" stroke-width="1.1226"/>
 <path d="m763 329.59 234-2v24l-234-2z" fill="url(#bo)"/>
 <path transform="matrix(1.0255 0 0 1 206.13 -429.27)" d="m544.84 761.47c-0.58372 4.8792-0.1953 9.989-0.15625 14.781 1.9703 2.1018 5.7863-0.059 8.3096 0.35203 15.114-1.7486 30.296-3.443 45.534-2.727 54.615-0.0334 109.23 0.0825 163.84-0.0937 2.6055-1.733 0.29604-5.4963 1.3125-7.875-0.41454-3.3084-4.6141-1.7227-6.75-2.0354-60.329-0.13119-120.68 0.3514-180.99-0.29297-10.145-1.0194-20.769-2.2907-30.944-2.9842l-0.0879 0.49221-0.0684 0.38279z" fill="url(#al)" filter="url(#c)" stroke="url(#ak)" stroke-width="1.975"/>
 <path d="m764.74 332.1c-0.69586 1.7515-0.54603 5.574-0.53316 7.6691s-0.0378 5.7466 0.73908 7.443c0.22663 0.19011 0.4184 0.13537 0.68011 0.11517 12.866-0.98921 25.921-2.6948 38.653-3.8468 0.13555-2.341 0.37411-5.5896-0.0625-7.8438-12.826-0.92909-25.788-2.8637-38.591-3.7277-0.27199-0.0183-0.50897-0.0362-0.88561 0.19095z" fill="#0f151d"/>
 <path d="m829.5,336.09448h127c.831,0 1.5.669 1.5,1.5v4c0,.831-.669,1.5-1.5,1.5h-127c-.831,0-1.5-.669-1.5-1.5v-4c0-.831.669-1.5 1.5-1.5z" fill="#0f151d"/>
 <path d="m829.01 335.85h127.98c0.831 0 1.5 0.669 1.5 1.5v4.4916c0 0.831-0.669 1.5-1.5 1.5h-127.98c-0.831 0-1.5-0.669-1.5-1.5v-4.4916c0-0.831 0.669-1.5 1.5-1.5z" fill="none" stroke="url(#bp)" stroke-width="1.5"/>
 <path transform="matrix(.62242 0 0 1.2779 513.59 -642.93)" d="m777.28 759.91-0.4932 0.0822-0.0693 0.0116v-5e-5c-4.2983 0.9362-8.9216 3.2916-12.091 4.3338-0.94307 1.4472-0.61122 3.0763-0.65813 4.7286s0.0619 2.8688 0.81131 4.2338c3.3184 2.0362 8.2304 3.6572 12.5 4.61" fill="url(#an)" filter="url(#c)" stroke="url(#am)" stroke-width="1.6819"/>
 <path d="m763.57 330.27v18.639" fill="none" filter="url(#c)" opacity=".5" stroke="#fff" stroke-linecap="round"/>
 <path transform="matrix(.2182 0 0 .83915 576.8 -303)" d="m639.77 780.36h155.23v10h-153.73z" fill="url(#h)" filter="url(#i)" opacity=".75"/>
 <path d="m717.5 307.59v62" fill="none" filter="url(#c)" opacity=".25" stroke="#fff" stroke-linecap="round"/>
 <path transform="matrix(1.0629 0 0 1.0268 188.77 -448.79)" d="m496.5 736.86v60" fill="none" filter="url(#c)" opacity=".25" stroke="#000" stroke-linecap="round" stroke-width=".95723"/>
 <path transform="matrix(1.0629 0 0 1.0268 201.77 -448.79)" d="m497.03 737c0.80832 3.3677 0.80589 18.865 0.85947 26.986 0.0804 12.179 0.18734 30.75-0.99244 32.876" fill="none" filter="url(#c)" opacity=".25" stroke="#000" stroke-linecap="round" stroke-width=".95723"/>
 <path transform="matrix(1.0629 0 0 1.0268 200.77 -448.79)" d="m497.03 737c0.80832 3.3677 0.80589 18.865 0.85947 26.986 0.0804 12.179 0.18734 30.75-0.99244 32.876" fill="none" filter="url(#c)" opacity=".1" stroke="#fff" stroke-linecap="round" stroke-width=".95723"/>
 <path transform="matrix(.79672 0 0 .93345 348.33 -377.35)" d="m496.63 737.13c0.80832 3.3677 1.2048 22.336 1.2584 30.457 0.0804 12.179-0.21155 27.279-1.3913 29.405" fill="none" filter="url(#c)" opacity=".15" stroke="#fff" stroke-linecap="round" stroke-width="1.1596"/>
 <path transform="matrix(1.0629 0 0 1.0594 216.77 -473.98)" d="m496.63 737.13c0.80832 3.3677 1.2048 22.436 1.2584 30.558 0.0804 12.179-0.21155 27.178-1.3913 29.305" fill="none" filter="url(#c)" opacity=".08" stroke="#000" stroke-linecap="round" stroke-width=".94236"/>
 <path transform="matrix(1.0629 0 0 1.0594 221.27 -473.98)" d="m496.63 737.13c0.80832 3.3677 1.2048 22.436 1.2584 30.558 0.0804 12.179-0.21155 27.178-1.3913 29.305" fill="none" filter="url(#c)" opacity=".25" stroke="#fff" stroke-linecap="round" stroke-width=".94236"/>
 <path transform="matrix(1.0629 0 0 1.0453 222.27 -463.16)" d="m496.63 737.13c0.80832 3.3677 1.2048 22.436 1.2584 30.558 0.0804 12.179-0.21155 27.178-1.3913 29.305" fill="none" filter="url(#c)" opacity=".25" stroke="#000" stroke-linecap="round" stroke-width=".9487"/>
 <path transform="matrix(1 0 0 .86347 230 -323.57)" d="m-7.5463 736.9c-3.2764 1.6478-5.7252 16.59-5.8492 30.587-0.10941 12.34 3.1211 28.266 5.8492 29.236" fill="none" filter="url(#b)" opacity=".25" stroke="#fff" stroke-linecap="round" stroke-width="1.0762"/>
 <path transform="matrix(1 0 0 .86347 230 -323.57)" d="m-8.5463 736.9c-3.438 1.5542-5.5635 16.403-5.6876 30.4-0.10941 12.34 2.717 28.079 5.6876 29.423" fill="none" filter="url(#b)" opacity=".15" stroke="#000" stroke-linecap="round" stroke-width="1.0762"/>
 <path transform="matrix(1 0 0 1.1324 229 -529.26)" d="m-12.072 765.1c-0.01398 0.73383-0.02421 1.4687-0.03072 2.2027-0.0063 0.71123-0.0045 1.4331 5e-3 2.1624" fill="none" filter="url(#b)" opacity=".5" stroke="#fff" stroke-linecap="round" stroke-width=".93971"/>
 <path transform="matrix(1 0 0 .86347 227 -323.57)" d="m-12.072 765.1c-0.01398 0.73383-0.02421 1.4687-0.03072 2.2027-0.0063 0.71123-0.0045 1.4331 5e-3 2.1624" fill="none" filter="url(#b)" opacity=".25" stroke="#fff" stroke-linecap="round" stroke-width="1.0762"/>
 <path transform="matrix(.99771 0 0 .77399 209.47 -255.02)" d="m-7.5463 736.9c-3.1693 4.4092-5.7252 16.59-5.8492 30.587-0.10941 12.34 1.8357 24.538 5.8492 29.236" fill="none" filter="url(#b)" opacity=".25" stroke="#fff" stroke-linecap="round" stroke-width="1.138"/>
 <path transform="matrix(.99771 0 0 .77399 209.47 -255.02)" d="m-8.5463 736.9c-3.7593 1.9684-5.5635 16.403-5.6876 30.4-0.10941 12.34 2.1815 27.803 5.6876 29.423" fill="none" filter="url(#b)" opacity=".15" stroke="#000" stroke-linecap="round" stroke-width="1.138"/>
 <path transform="matrix(.99771 0 0 .77399 206.48 -255.02)" d="m-12.072 765.1c-0.01398 0.73383-0.02421 1.4687-0.03072 2.2027-0.0063 0.71123-0.0045 1.4331 5e-3 2.1624" fill="none" filter="url(#b)" opacity=".25" stroke="#fff" stroke-linecap="round" stroke-width="1.138"/>
 <path transform="matrix(1 0 0 1.1324 208.5 -529.26)" d="m-12.072 765.1c-0.01398 0.73383-0.02421 1.4687-0.03072 2.2027-0.0063 0.71123-0.0045 1.4331 5e-3 2.1624" fill="none" filter="url(#b)" opacity=".5" stroke="#fff" stroke-linecap="round" stroke-width=".93971"/>
 <path transform="matrix(.99771 0 0 1.023 191.48 -445.47)" d="m-12.072 765.1c-0.01398 0.73383-0.02421 1.4687-0.03072 2.2027-0.0063 0.71123-0.0045 1.4331 5e-3 2.1624" fill="none" filter="url(#b)" opacity=".5" stroke="#fff" stroke-linecap="round" stroke-width=".98981"/>
 <path transform="matrix(.93621 0 0 .73106 191.3 -222.09)" d="m-7.5463 736.9c-3.1693 4.4092-5.7252 16.59-5.8492 30.587-0.10941 12.34 1.8357 24.538 5.8492 29.236" fill="none" filter="url(#b)" opacity=".25" stroke="#fff" stroke-linecap="round" stroke-width="1.2088"/>
 <path transform="matrix(2.211 0 0 .92355 -88.838 -369.76)" d="m496.69 736.73c1.6421 4.6984 1.9186 21.369 1.9854 31.492 0.0804 12.179-0.66064 29.437-2.0072 29.169" fill="none" filter="url(#g)" opacity=".25" stroke="#fff" stroke-linecap="round" stroke-width=".69981"/>
 <path transform="matrix(.6979 0 0 .69237 203.33 -192.42)" d="m-7.5463 736.9c-3.1693 4.4092-5.7252 16.59-5.8492 30.587-0.10941 12.34 1.8357 24.538 5.8492 29.236" fill="none" filter="url(#bt)" opacity=".05" stroke="#000" stroke-linecap="round" stroke-width="4.3157"/>
 <path transform="matrix(.6979 0 0 .69237 200.83 -192.42)" d="m-7.5463 736.9c-3.1693 4.4092-5.7252 16.59-5.8492 30.587-0.10941 12.34 1.8357 24.538 5.8492 29.236" fill="none" filter="url(#bu)" opacity=".25" stroke="url(#aj)" stroke-linecap="round" stroke-width="4.3157"/>
 <g transform="translate(220 -543.27)" fill="none" mask="url(#v)">
  <path d="m48.171 882.06-22.87-32.018" opacity=".15" stroke="#fff"/>
  <path d="m21.87 858.9h106.35" opacity=".15" stroke="#fff"/>
  <path d="m86.478 859.19 5.1458-14.866" opacity=".15" stroke="#fff"/>
  <path d="m38.943 858.94 20.663-13.476" opacity=".15" stroke="#fff"/>
  <path d="m48.171 881.32-22.87 32.018" opacity=".15" stroke="#fff"/>
  <path d="m21.87 904.48h106.35" opacity=".15" stroke="#fff"/>
  <path d="m86.478 904.19 5.1458 14.866" opacity=".15" stroke="#fff"/>
  <path d="m38.943 904.44 20.663 13.476" opacity=".15" stroke="#fff"/>
  <path d="m48 882.86h98" opacity=".15" stroke="#fff"/>
  <path d="m49.171 882.06-22.87-32.018" opacity=".25" stroke="#8f6b02"/>
  <path d="m22.87 858.9h106.35" opacity=".25" stroke="#8f6b02"/>
  <path d="m87.478 859.19 5.1458-14.866" opacity=".25" stroke="#8f6b02"/>
  <path d="m39.943 858.94 20.663-13.476" opacity=".25" stroke="#8f6b02"/>
  <path d="m49.171 881.32-22.87 32.018" opacity=".25" stroke="#8f6b02"/>
  <path d="m22.87 904.48h106.35" opacity=".25" stroke="#8f6b02"/>
  <path d="m87.478 904.19 5.1458 14.866" opacity=".25" stroke="#8f6b02"/>
  <path d="m39.943 904.44 20.663 13.476" opacity=".25" stroke="#8f6b02"/>
  <path d="m48 881.86h98" opacity=".25" stroke="#8f6b02"/>
 </g>
 <path d="m257.45 308.63c-2.9532 2.1157-4.4323 16.403-4.5564 30.4-0.10941 12.34 2.2322 27.892 4.5564 29.423" fill="none" filter="url(#b)" opacity=".25" stroke="#fff" stroke-linecap="round"/>
 <path d="m256.45 308.63c-2.9532 2.1157-4.4323 16.403-4.5564 30.4-0.10941 12.34 2.2322 27.892 4.5564 29.423" fill="none" filter="url(#b)" opacity=".15" stroke="#000" stroke-linecap="round"/>
 <path transform="matrix(1 0 0 1.1424 220 -537.16)" d="m32.928 765.1c-0.01398 0.73383-0.02421 1.4687-0.03072 2.2027-0.0063 0.71123-0.0045 1.4331 5e-3 2.1624" fill="none" filter="url(#b)" opacity=".5" stroke="#fff" stroke-linecap="round" stroke-width=".9356"/>
 <path d="m250.93 336.83c-0.014 0.73383-0.0242 1.4687-0.0307 2.2027-6e-3 0.71123-4e-3 1.4331 5e-3 2.1624" fill="none" filter="url(#b)" opacity=".25" stroke="#fff" stroke-linecap="round"/>
 <path d="m341.45 308.63c-1.8338 4.5128-3.4523 49.617 0 59.823" fill="none" filter="url(#b)" opacity=".5" stroke="#000" stroke-linecap="round"/>
 <path d="m340.45 308.63c-1.8338 4.5128-3.4523 49.617 0 59.823" fill="none" filter="url(#b)" opacity=".25" stroke="#fff" stroke-linecap="round"/>
 <path d="m744.28125,306.1073c.0721.4248-.35745.828-.28125,1.25 .14185.7857.27261,1.7191.375,2.75h-13.34375c-.0466-.6326-.10968-1.1775-.15625-1.5938-.0829-.7409-.87855-1.3955-1.4375-1.4062h-13.28125v1h-83.15625-377c-.64627.4807-1.31306,1.8019-1.9375,4h-32.6875c-.91928.5106-1.80195,1.4809-2.59375,3h-18.375c-.62857.3491-1.24477.9428-1.8125,1.8125-2.39033-.9392-4.29084-1.4276-5.1875-1.125h-9.0625c-.14149.079-.26462.177-.40625.2812h-4.40625c-1.80571,1.0091-3.66539,4.1394-4.71875,10.3438l-67.46875-11.3125c-17.28534,7.5247-34.55899,17.5965-51.84375,22.8125-.36543-.5894-.97492-.8125-1.65625-.8125-1.11459,0-2,.8857-2,2.1562s.94791,1.9375 2.0625,1.9375c.73966,0 1.3361-.1047 1.6875-.7812 17.25536,5.2237 34.49404,15.3006 51.75,22.8125l67.6875-11.3438c1.0716,5.3084 2.79559,8.0717 4.5,9.1875h4.40625c.13582.1095.27016.224.40625.3125h9.09375c1.2058.1736 3.12388-.4496 5.15625-1.2812 .57412.9048 1.16924,1.5814 1.8125,2h18.4375c.76827,1.4354 1.63594,2.4174 2.53125,3h32.65625c.61876,2.0934 1.30879,3.3998 1.96875,4h377 83.15625v1h13.0625c.74463.1319 1.57509-.7269 1.625-1.4063 .0275-.3743.0623-1.1028.0937-1.5937h13.40625c-.0954,1.0165-.19793,1.9207-.3125,2.5625-.0724.4057.33122,1.0327.25,1.4375h5.09375c.0588-.2252.11671-.5901.1875-1h224.6875c.0373.1236.0516.2446.0312.3437h25.09375c.3165-.4477.6556-1.5287 1.0313-3.1562h9.2187c.6084-.2203 1.1922-.8914 1.75-2.0625 .5864-.2088 1.1437-.4865 1.6875-.8438 4.4257-9.8766 2.8507-21.0569 3.1875-31.5937-.3406-7.1929-1.0642-14.7332-4.5937-21.0625-.3482-.2555-.738-.3478-1.1563-.375-.3203-.6937-.6313-1.1879-.875-1.4688h-9.0625c-.3925-1.7049-.7823-2.7419-1.1875-3.125h-25.09375c.0196.1131.0116.2284-.0312.3438h-224.65625c-.0794-.4685-.15506-.8006-.21875-1h-5.09375z" fill="url(#bq)" opacity=".5"/>
</svg>
